<svg width="24" height="24" viewBox="0 0 24 24" fill="none" xmlns="http://www.w3.org/2000/svg">
<g clip-path="url(#clip0_4021_1212)">
<path d="M13.377 16.9746C13.875 15.9785 14.2266 14.6016 14.3145 13.0781H9.68555C9.77344 14.5723 10.125 15.9785 10.623 16.9746C11.2383 18.2637 11.8242 18.4688 12 18.4688C12.1758 18.4688 12.7617 18.2637 13.377 16.9746ZM14.3145 11.6719C14.2266 10.1777 13.875 8.80078 13.377 7.77539C12.7617 6.48633 12.1758 6.28125 12 6.28125C11.8242 6.28125 11.2383 6.48633 10.623 7.77539C10.125 8.77148 9.77344 10.1777 9.68555 11.6719H14.3145ZM15.7207 13.0781C15.6328 14.9531 15.1641 16.7109 14.4609 17.9414C16.3945 17.0918 17.8008 15.2754 18.0645 13.0781H15.7207ZM18.0645 11.6719C17.8008 9.47461 16.3945 7.6582 14.4609 6.80859C15.1641 8.03906 15.6328 9.79688 15.7207 11.6719H18.0645ZM8.2793 11.6719C8.36719 9.79688 8.83594 8.03906 9.53906 6.80859C7.60547 7.6582 6.19922 9.47461 5.93555 11.6719H8.2793ZM5.93555 13.0781C6.19922 15.2754 7.60547 17.0918 9.53906 17.9414C8.83594 16.7109 8.36719 14.9531 8.2793 13.0781H5.93555ZM12 19.875C7.86914 19.875 4.5 16.5059 4.5 12.375C4.5 8.24414 7.86914 4.875 12 4.875C16.1309 4.875 19.5 8.24414 19.5 12.375C19.5 16.5059 16.1309 19.875 12 19.875Z" fill="white"/>
</g>
<defs>
<clipPath id="clip0_4021_1212">
<rect width="24" height="24" fill="white"/>
</clipPath>
</defs>
</svg>
