<svg width="24" height="24" viewBox="0 0 24 24" fill="none" xmlns="http://www.w3.org/2000/svg">
<g clip-path="url(#clip0_4018_696)">
<path d="M9 6V10H18.75C19.4375 10 20 10.5625 20 11.25V17.75C20 18.4375 19.4375 19 18.75 19H5.25C4.5625 19 4 18.4375 4 17.75V9.25C4 8.5625 4.5625 8 5.25 8H7.5V6C7.5 4.90625 8.40625 4 9.5 4H14.4688C15 4 15.5312 4.21875 15.9062 4.59375L17.4062 6.09375C17.7812 6.46875 18 7 18 7.53125V8.5H16.5V7.53125C16.5 7.375 16.4375 7.25 16.3438 7.15625L14.8438 5.65625C14.75 5.5625 14.625 5.5 14.4688 5.5H9.5C9.21875 5.5 9 5.71875 9 6ZM7.5 9.5H5.5V17.5H7.5V9.5ZM9 17.5H18.5V11.5H9V17.5ZM11.25 13.75C10.8438 13.75 10.5 13.4062 10.5 13C10.5 12.5938 10.8438 12.25 11.25 12.25C11.6562 12.25 12 12.5938 12 13C12 13.4062 11.6562 13.75 11.25 13.75ZM12 16C12 16.4062 11.6562 16.75 11.25 16.75C10.8438 16.75 10.5 16.4062 10.5 16C10.5 15.5938 10.8438 15.25 11.25 15.25C11.6562 15.25 12 15.5938 12 16ZM14 13.75C13.5938 13.75 13.25 13.4062 13.25 13C13.25 12.5938 13.5938 12.25 14 12.25C14.4062 12.25 14.75 12.5938 14.75 13C14.75 13.4062 14.4062 13.75 14 13.75ZM14.75 16C14.75 16.4062 14.4062 16.75 14 16.75C13.5938 16.75 13.25 16.4062 13.25 16C13.25 15.5938 13.5938 15.25 14 15.25C14.4062 15.25 14.75 15.5938 14.75 16ZM16.75 13.75C16.3438 13.75 16 13.4062 16 13C16 12.5938 16.3438 12.25 16.75 12.25C17.1562 12.25 17.5 12.5938 17.5 13C17.5 13.4062 17.1562 13.75 16.75 13.75ZM17.5 16C17.5 16.4062 17.1562 16.75 16.75 16.75C16.3438 16.75 16 16.4062 16 16C16 15.5938 16.3438 15.25 16.75 15.25C17.1562 15.25 17.5 15.5938 17.5 16Z" fill="white"/>
</g>
<defs>
<clipPath id="clip0_4018_696">
<rect width="24" height="24" fill="white"/>
</clipPath>
</defs>
</svg>
