<svg width="24" height="24" viewBox="0 0 24 24" fill="none" xmlns="http://www.w3.org/2000/svg">
<g clip-path="url(#clip0_4018_692)">
<path d="M8.5 5.5C8.21875 5.5 8 5.71875 8 6V18C8 18.2812 8.21875 18.5 8.5 18.5H15.5C15.7812 18.5 16 18.2812 16 18V6C16 5.71875 15.7812 5.5 15.5 5.5H8.5ZM6.5 6C6.5 4.90625 7.40625 4 8.5 4H15.5C16.5938 4 17.5 4.90625 17.5 6V18C17.5 19.0938 16.5938 20 15.5 20H8.5C7.40625 20 6.5 19.0938 6.5 18V6ZM10.75 15.5H13.25C13.6562 15.5 14 15.8438 14 16.25C14 16.6562 13.6562 17 13.25 17H10.75C10.3438 17 10 16.6562 10 16.25C10 15.8438 10.3438 15.5 10.75 15.5Z" fill="white"/>
</g>
<defs>
<clipPath id="clip0_4018_692">
<rect width="24" height="24" fill="white"/>
</clipPath>
</defs>
</svg>
