<svg width="91" height="47" viewBox="0 0 91 47" fill="none" xmlns="http://www.w3.org/2000/svg">
<g clip-path="url(#clip0_4001_533)">
<path d="M34.9146 0.402527C41.0424 0.402527 46.102 1.80822 47.564 8.75116H40.1157C39.7221 7.31743 38.7377 4.90062 34.9429 4.90057C30.7548 4.90057 29.3776 7.73922 29.3774 11.0558C29.3774 14.3731 30.614 17.2121 34.9429 17.2121C37.9508 17.2121 39.7504 15.6948 40.1997 13.3615H47.0151L52.3726 1.02069H60.5532L66.4849 14.8156V1.02069H74.187L83.4917 13.5861H83.5483V1.02069H90.0132V21.092H82.6206L73.0063 8.41425H72.9507V21.092H62.0142L60.8062 17.8312H52.0356L50.8267 21.092H43.6587L44.4839 19.1906C42.595 20.718 39.6316 21.7101 34.9146 21.7101C29.6126 21.7101 26.0099 20.2516 24.0522 17.4719C22.0905 21.6682 15.359 21.7101 13.0161 21.7101C6.21341 21.7101 1.29347 20.5013 0.899902 14.9074H8.82666C8.99533 16.4254 9.83907 17.381 13.3247 17.381C15.011 17.381 16.8384 16.9875 16.8384 15.2726C16.8382 14.2047 15.9951 13.8392 13.6626 13.4738L6.97217 12.4621C2.84012 11.8436 1.23779 9.76327 1.23779 6.78339C1.23786 4.14129 2.86802 0.402527 11.6665 0.402527C18.2077 0.402539 22.4093 1.81017 23.5015 5.5412C25.2557 2.23812 28.9643 0.402546 34.9146 0.402527ZM53.6099 13.6711H59.2319L56.4487 6.08124H56.3931L53.6099 13.6711ZM11.8071 4.56268C9.5582 4.56268 8.32183 5.20968 8.32178 6.53046C8.32178 7.20515 8.799 7.59909 9.81104 7.76776C11.4978 8.04889 16.642 8.80737 18.6099 9.14471C20.0921 9.40108 21.3396 9.79553 22.3062 10.3976C22.357 9.119 22.562 7.94955 22.9214 6.89569H16.1636C15.9667 5.5184 14.8705 4.56271 11.8071 4.56268Z" fill="white"/>
<path d="M11.1733 21.8449C15.0108 21.8449 18.3051 22.5602 20.0083 25.7014V22.3215H25.1626V34.1887H34.5835V37.7834H20.0083V34.591C18.8097 36.6938 16.3763 38.2599 11.1733 38.2599C4.63358 38.2598 1.45068 35.3791 1.45068 30.0519C1.45078 24.8765 4.46064 21.845 11.1733 21.8449ZM39.9966 37.7834H34.8423V22.3215H39.9966V37.7834ZM69.5767 32.0012H69.6196V22.3215H90.4087V25.7863H84.7349V37.7834H79.5806V25.7863H74.6011V37.7834H68.9048L61.4995 28.0168H61.4556V37.7834H41.1655V22.3215H62.4087L69.5767 32.0012ZM11.1948 25.3098C7.96853 25.31 6.90778 27.497 6.90771 30.0519C6.90771 32.607 7.86038 34.7949 11.1948 34.7951C13.5118 34.7951 14.898 33.6256 15.2446 31.8283H20.0083V28.2766H15.1802C14.8771 27.1718 14.1184 25.3098 11.1948 25.3098ZM46.3188 28.4494H55.9995V31.6545H46.3188V34.4484H56.4751V25.6564H46.3188V28.4494Z" fill="#8A8B8A"/>
<path d="M16.0347 43.5012C16.0348 44.7231 16.6043 45.1134 17.7534 45.1135C18.9024 45.1135 19.472 44.7233 19.4722 43.5012V39.0402H21.9819V43.9113C21.9819 45.9885 20.4206 46.8 17.7534 46.8C15.0861 46.7999 13.5259 45.9884 13.5259 43.9113V39.0402H16.0347V43.5012ZM49.812 38.8088C52.5422 38.8088 54.1871 39.4628 54.3452 41.2443H51.4985C51.4247 40.7278 51.0136 40.3694 49.8647 40.3693C49.0216 40.3693 48.5574 40.6115 48.5571 41.1066C48.5571 41.3596 48.736 41.5072 49.1157 41.5705C49.7482 41.6759 51.6775 41.9606 52.4155 42.0871C53.8181 42.3296 54.6616 42.8994 54.6616 44.2277C54.6614 46.779 51.3511 46.8 50.3179 46.8C47.7663 46.8 45.9215 46.347 45.7739 44.2482H48.7466C48.8098 44.8179 49.1269 45.1769 50.4341 45.1769C51.0665 45.1769 51.7515 45.0289 51.7515 44.3859C51.7514 43.9855 51.4349 43.8477 50.5601 43.7111L48.0503 43.3312C46.5011 43.0997 45.9 42.3195 45.8999 41.2023C45.8999 40.2114 46.5119 38.8088 49.812 38.8088ZM85.6118 38.8088C87.689 38.8088 90.0295 39.3467 90.3462 41.5187H87.5093C87.3511 40.9389 86.898 40.4318 85.7173 40.4318C84.1785 40.432 83.4821 41.4866 83.4819 42.8146C83.4819 44.1222 84.1784 45.1768 85.7173 45.1769C86.9507 45.1769 87.594 44.7129 87.8364 43.8586H86.2974V42.298H90.3462V46.5685H89.1763L88.8696 45.7883C88.5426 46.1577 87.5725 46.8 85.6226 46.8C82.3333 46.7999 80.8893 45.3984 80.8892 42.8049C80.8892 40.5906 82.3543 38.8088 85.6118 38.8088ZM9.61572 39.0402C11.6607 39.0403 12.3882 40.1269 12.3882 41.55C12.3881 42.7938 11.7555 44.0586 9.73193 44.0588H6.55811V46.5685H4.04932V39.0402H9.61572ZM29.8354 39.0402C31.659 39.0403 31.9751 40.1689 31.9751 40.8967C31.975 41.6029 31.5849 42.214 31.0474 42.4142V42.4357C31.838 42.6145 32.355 43.2578 32.355 44.3224C32.355 45.219 31.9327 46.5685 29.6235 46.5685H23.604V39.0402H29.8354ZM36.2759 44.8185H40.8618V46.5685H33.7661V39.0402H36.2759V44.8185ZM44.5298 46.5685H42.021V39.0412H44.5298V46.5685ZM58.3823 41.7287H62.188V39.0412H64.6978V46.5685H62.188V43.4152H58.3823V46.5685H55.8735V39.0412H58.3823V41.7287ZM68.9663 46.5685H66.4565V39.0412H68.9663V46.5685ZM77.105 43.7531H77.1265V39.0402H79.5513V46.5685H76.7778L73.1724 41.8137H73.1519V46.5685H70.7271V39.0402H73.6147L77.105 43.7531ZM26.1128 44.9445H28.812C29.339 44.9445 29.6976 44.6605 29.6978 44.1652C29.6978 43.6693 29.3391 43.4162 28.812 43.4162H26.1128V44.9445ZM6.55811 42.4982H8.79346C9.489 42.4982 9.79437 42.2139 9.79443 41.55C9.79443 40.8859 9.48907 40.6008 8.79346 40.6008H6.55811V42.4982ZM26.1128 41.9396H28.6118C29.1494 41.9396 29.3813 41.6449 29.3813 41.2971C29.3813 40.9597 29.1495 40.6642 28.6118 40.6642H26.1128V41.9396Z" fill="white"/>
</g>
<defs>
<clipPath id="clip0_4001_533">
<rect width="91" height="47" fill="white"/>
</clipPath>
</defs>
</svg>
