<svg width="90" height="47" viewBox="0 0 90 47" fill="none" xmlns="http://www.w3.org/2000/svg">
<path d="M34.0146 0C40.1425 0 45.2021 1.40569 46.6641 8.34863H39.2158C38.8222 6.9149 37.8378 4.4981 34.043 4.49805C29.8549 4.49805 28.4776 7.3367 28.4775 10.6533C28.4775 13.9706 29.7141 16.8096 34.043 16.8096C37.0509 16.8095 38.8505 15.2923 39.2998 12.959H46.1152L51.4727 0.618164H59.6533L65.585 14.4131V0.618164H73.2871L82.5918 13.1836H82.6484V0.618164H89.1133V20.6895H81.7207L72.1064 8.01172H72.0508V20.6895H61.1143L59.9062 17.4287H51.1357L49.9268 20.6895H42.7588L43.584 18.7881C41.6951 20.3155 38.7317 21.3076 34.0146 21.3076C28.7127 21.3076 25.11 19.8491 23.1523 17.0693C21.1906 21.2657 14.4591 21.3076 12.1162 21.3076C5.31351 21.3076 0.39357 20.0988 0 14.5049H7.92676C8.09543 16.0229 8.93917 16.9785 12.4248 16.9785C14.1111 16.9785 15.9385 16.585 15.9385 14.8701C15.9383 13.8021 15.0952 13.4367 12.7627 13.0713L6.07227 12.0596C1.94022 11.4411 0.337891 9.36075 0.337891 6.38086C0.337956 3.73877 1.96812 0 10.7666 0C17.3078 1.25808e-05 21.5094 1.40765 22.6016 5.13867C24.3558 1.83559 28.0644 1.92182e-05 34.0146 0ZM52.71 13.2686H58.332L55.5488 5.67871H55.4932L52.71 13.2686ZM10.9072 4.16016C8.6583 4.16016 7.42192 4.80715 7.42188 6.12793C7.42188 6.80262 7.8991 7.19656 8.91113 7.36523C10.5979 7.64636 15.7421 8.40485 17.71 8.74219C19.1922 8.99855 20.4397 9.39301 21.4062 9.99512C21.4571 8.71647 21.6621 7.54703 22.0215 6.49316H15.2637C15.0668 5.11588 13.9706 4.16019 10.9072 4.16016Z" fill="white"/>
<path d="M10.2734 21.4424C14.1109 21.4424 17.4052 22.1576 19.1084 25.2988V21.9189H24.2627V33.7861H33.6836V37.3809H19.1084V34.1885C17.9098 36.2913 15.4764 37.8574 10.2734 37.8574C3.73368 37.8573 0.550781 34.9766 0.550781 29.6494C0.550878 24.474 3.56074 21.4425 10.2734 21.4424ZM39.0967 37.3809H33.9424V21.9189H39.0967V37.3809ZM68.6768 31.5986H68.7197V21.9189H89.5088V25.3838H83.835V37.3809H78.6807V25.3838H73.7012V37.3809H68.0049L60.5996 27.6143H60.5557V37.3809H40.2656V21.9189H61.5088L68.6768 31.5986ZM10.2949 24.9072C7.06863 24.9074 6.00788 27.0945 6.00781 29.6494C6.00781 32.2044 6.96048 34.3924 10.2949 34.3926C12.6119 34.3926 13.9981 33.2231 14.3447 31.4258H19.1084V27.874H14.2803C13.9772 26.7693 13.2185 24.9072 10.2949 24.9072ZM45.4189 28.0469H55.0996V31.252H45.4189V34.0459H55.5752V25.2539H45.4189V28.0469Z" fill="white"/>
<path d="M15.1348 43.0986C15.1349 44.3206 15.7044 44.7108 16.8535 44.7109C18.0025 44.7109 18.5721 44.3207 18.5723 43.0986V38.6377H21.082V43.5088C21.082 45.586 19.5207 46.3975 16.8535 46.3975C14.1862 46.3974 12.626 45.5859 12.626 43.5088V38.6377H15.1348V43.0986ZM48.9121 38.4062C51.6423 38.4063 53.2872 39.0603 53.4453 40.8418H50.5986C50.5248 40.3253 50.1137 39.9669 48.9648 39.9668C48.1217 39.9668 47.6575 40.2089 47.6572 40.7041C47.6572 40.9571 47.836 41.1047 48.2158 41.168C48.8483 41.2734 50.7776 41.5581 51.5156 41.6846C52.9182 41.927 53.7617 42.4969 53.7617 43.8252C53.7615 46.3765 50.4512 46.3975 49.418 46.3975C46.8664 46.3975 45.0216 45.9445 44.874 43.8457H47.8467C47.9099 44.4154 48.227 44.7744 49.5342 44.7744C50.1666 44.7744 50.8516 44.6263 50.8516 43.9834C50.8515 43.5829 50.535 43.4452 49.6602 43.3086L47.1504 42.9287C45.6012 42.6972 45.0001 41.9169 45 40.7998C45 39.8089 45.612 38.4062 48.9121 38.4062ZM84.7119 38.4062C86.7891 38.4063 89.1296 38.9441 89.4463 41.1162H86.6094C86.4512 40.5364 85.9981 40.0293 84.8174 40.0293C83.2786 40.0294 82.5822 41.0841 82.582 42.4121C82.582 43.7197 83.2785 44.7743 84.8174 44.7744C86.0508 44.7744 86.6941 44.3104 86.9365 43.4561H85.3975V41.8955H89.4463V46.166H88.2764L87.9697 45.3857C87.6427 45.7552 86.6726 46.3975 84.7227 46.3975C81.4333 46.3974 79.9894 44.9959 79.9893 42.4023C79.9893 40.1881 81.4544 38.4062 84.7119 38.4062ZM8.71582 38.6377C10.7608 38.6378 11.4883 39.7243 11.4883 41.1475C11.4882 42.3913 10.8556 43.6561 8.83203 43.6562H5.6582V46.166H3.14941V38.6377H8.71582ZM28.9355 38.6377C30.7591 38.6378 31.0752 39.7663 31.0752 40.4941C31.0751 41.2003 30.685 41.8114 30.1475 42.0117V42.0332C30.9381 42.212 31.4551 42.8552 31.4551 43.9199C31.4551 44.8164 31.0328 46.166 28.7236 46.166H22.7041V38.6377H28.9355ZM35.376 44.416H39.9619V46.166H32.8662V38.6377H35.376V44.416ZM43.6299 46.166H41.1211V38.6387H43.6299V46.166ZM57.4824 41.3262H61.2881V38.6387H63.7979V46.166H61.2881V43.0127H57.4824V46.166H54.9736V38.6387H57.4824V41.3262ZM68.0664 46.166H65.5566V38.6387H68.0664V46.166ZM76.2051 43.3506H76.2266V38.6377H78.6514V46.166H75.8779L72.2725 41.4111H72.252V46.166H69.8271V38.6377H72.7148L76.2051 43.3506ZM25.2129 44.542H27.9121C28.4391 44.542 28.7977 44.2579 28.7979 43.7627C28.7979 43.2668 28.4392 43.0137 27.9121 43.0137H25.2129V44.542ZM5.6582 42.0957H7.89355C8.5891 42.0956 8.89447 41.8114 8.89453 41.1475C8.89453 40.4834 8.58916 40.1983 7.89355 40.1982H5.6582V42.0957ZM25.2129 41.5371H27.7119C28.2495 41.5371 28.4814 41.2424 28.4814 40.8945C28.4814 40.5572 28.2496 40.2617 27.7119 40.2617H25.2129V41.5371Z" fill="white"/>
</svg>
