<svg width="99" height="22" viewBox="0 0 99 22" fill="none" xmlns="http://www.w3.org/2000/svg">
<path d="M85.2598 6.14941C86.1056 6.14961 86.6904 6.78143 86.6904 7.69434V8.84863H84.46V8.08398H79.6855V9.98926H85.1465C85.9526 9.9893 86.6904 10.523 86.6904 11.5498V14.3105C86.6904 15.2509 86.1689 15.8232 85.1934 15.8232H78.9199C77.9204 15.8232 77.4386 15.2453 77.4385 14.4043V13.1406H79.6855V13.8887H84.46V11.9082H78.9834C78.1093 11.908 77.4795 11.3205 77.4795 10.5049V7.63281C77.4796 6.76386 78.1652 6.14948 78.999 6.14941H85.2598ZM91.1406 10.0176L95.5088 6.14844H98.6143L93.4023 10.6426L98.8018 15.8232H95.5869L91.1406 11.4229V15.8232H88.8467V6.14844H91.1406V10.0176ZM35.8984 13.3721L39.1113 6.14355H41.5771V15.8174H39.4551V10.1895L37.0059 15.8174H34.7432L32.2627 10.2197V15.8174H30.0625V6.14355H32.6367L35.8984 13.3721ZM54.21 15.8174H51.7461L50.8955 13.8906H45.8447L45.0205 15.8174H42.5244L46.8154 6.14355H49.8887L54.21 15.8174ZM64.4414 8.07812H57.4365V9.99902H63.4424V11.8867H57.4365V13.8818H64.459V15.8174H55.2051V6.14355H64.4414V8.07812ZM73.9844 6.14355C75.0166 6.14366 75.6161 6.74107 75.6162 7.76562V11.0156C75.6162 11.7632 74.9541 12.4394 73.6709 12.4395C73.5983 12.4431 73.5235 12.4395 73.4473 12.4395L75.6973 15.8174H73.2139L71.0811 12.5098H68.5176V15.8174H66.2549V6.14355H73.9844ZM46.6084 12.0713H50.1201L48.3438 7.97168L46.6084 12.0713ZM68.5176 10.585H73.3701V8.07812H68.5176V10.585Z" fill="white"/>
<path d="M18.3057 0C19.6882 0.000164255 20.8086 1.12133 20.8086 2.50391V19.4561C20.8084 20.8385 19.6881 21.9588 18.3057 21.959H2.50391C1.12095 21.959 0.000210352 20.8386 0 19.4561V2.50391C1.12007e-05 1.12123 1.12083 9.88105e-06 2.50391 0H18.3057ZM8.92871 8.10156L2.99414 5.24414L2.98145 5.26074L7.08789 10.4102L1.15332 13.2676L1.1582 13.2881H7.74512L6.2793 19.71L6.29785 19.7188L10.4053 14.5684L14.5117 19.7188L14.5303 19.709L13.0645 13.2881H19.6514L19.6562 13.2676L13.7217 10.4102L17.8281 5.26074L17.8145 5.24414L11.8809 8.10156L10.415 1.67969H10.3945L8.92871 8.10156Z" fill="white"/>
</svg>
