<svg width="93" height="29" viewBox="0 0 93 29" fill="none" xmlns="http://www.w3.org/2000/svg">
<path fill-rule="evenodd" clip-rule="evenodd" d="M36.2518 4.77148C37.7356 4.77179 39.2184 6.60813 38.7636 7.97363C38.7288 8.14138 38.4775 8.29297 38.8827 8.29297C39.2859 8.29297 41.7775 8.25883 41.9833 8.25879C42.1843 8.25879 43.0611 8.37775 42.6913 9.1875C42.319 9.99695 39.5392 15.7755 39.37 16.25C39.2007 16.7222 39.1514 17.3125 39.6063 17.3125C39.9099 17.3117 41.0135 16.4606 41.0643 16.0391C41.1403 15.4019 42.0879 12.984 43.1708 11.4424C43.3785 11.1462 43.5911 10.8829 43.8036 10.6699C44.8662 9.60843 48.6082 6.62589 51.0848 8.85059C51.0848 8.85059 53.142 6.80978 54.6932 7.77148C55.7945 8.45225 55.3679 9.59118 55.1649 10.0967C55.1649 10.0967 54.8164 11.0961 53.7528 13.5176C53.5364 14.0138 53.288 14.5686 53.0067 15.1875C52.8892 15.4502 53.0244 15.6092 53.2597 15.6094C53.4958 15.6094 53.951 15.2719 54.3563 14.918C54.3662 14.8899 54.9262 13.3061 56.0429 11.6328L56.0477 11.6367C57.2739 9.8023 59.1695 7.86298 61.7391 7.74902C62.8678 7.69861 63.6605 8.28814 64.1659 8.75977C64.1749 8.74888 65.9041 6.67116 67.4032 7.81543C68.6836 8.79254 68.2642 9.89449 68.162 10.2432C68.0206 10.7221 67.6883 11.5041 67.3339 12.3076L67.328 12.3105C66.7971 13.5112 66.2128 14.7585 66.122 15.1211C66.0543 15.3908 66.4255 15.5415 66.7294 15.29C67.5154 14.6368 70.1913 12.4346 70.1913 12.4346C70.2115 12.3858 71.5872 9.06573 72.122 8.37793C72.4508 7.95866 73.1014 7.40144 73.9764 7.40137C75.09 7.40137 75.8476 8.27708 76.4208 9.1377C76.4208 9.1377 78.1574 7.60156 79.4374 7.60156C80.6515 7.60173 82.673 9.00211 82.0155 11.3613C81.4343 13.4541 79.9768 15.829 79.8427 16.334C79.7081 16.8407 79.8929 17.1268 80.2294 17.127C80.5679 17.127 81.3382 16.661 81.6532 16.21C81.6478 16.1829 81.0104 12.976 84.5009 13.3115L85.5995 12.0205L87.2929 10.0303C87.2929 10.0303 86.5507 8.85011 86.5507 8.0293C86.5507 6.88246 87.1924 4.88807 89.619 4.90625C91.9276 4.9226 91.9784 6.82703 91.9784 7.19824C91.9783 7.57011 91.7095 8.78386 90.9345 9.82812C90.9534 9.87119 93.2492 15.0936 92.0848 18.71C92.0243 18.8935 91.9552 19.0746 91.8778 19.25C90.7954 21.674 87.866 22.1328 87.2577 22.1328C86.6533 22.1328 84.3598 22.1827 82.5057 20.127C82.496 20.1342 80.208 21.8466 77.8886 21.8467C75.5622 21.8467 74.7629 20.4465 75.6063 17.4922C76.7199 13.5982 78.1513 12.2542 77.0126 11.9502C76.438 11.7992 76.0141 11.7864 74.91 13.6035C73.6796 15.6258 72.3083 20.126 71.1288 21.2568C70.4234 21.9317 69.8302 21.9307 69.5272 21.9307C69.2235 21.9306 67.2001 21.6605 67.7069 18.7275C67.6817 18.7482 63.8924 21.8461 62.4472 21.8467C61.4696 21.8467 60.8457 21.0209 60.4745 19.9072C60.4485 19.9232 58.0221 21.4082 56.6825 21.4082C55.333 21.4081 54.3394 20.4808 53.8173 18.5596C53.8173 18.5596 51.929 19.403 49.8729 21.1387C49.8729 21.1387 47.664 28.3699 45.0507 28.3701C44.0058 28.3701 42.8935 27.1562 42.8934 26.0771C42.8934 24.9986 43.6009 23.5658 45.7421 20.751C45.7327 20.755 44.6953 21.2048 44.1571 21.2051C43.6181 21.2051 42.3532 21.0374 41.6122 19.3525C41.5828 19.3777 38.9528 21.627 36.8417 21.627C35.6282 21.6268 34.8349 20.5641 34.8348 19.5713C34.8348 19.0486 35.0347 18.5713 35.1386 18.2559C35.2918 17.8008 36.5892 15.1871 37.954 12.6094C38.1093 12.3166 37.7008 12.0704 37.4647 12.0703C37.2291 12.0703 36.9924 12.0864 36.7909 12.5254C36.5886 12.9637 34.716 16.7711 32.1063 19.6592C30.5214 21.4133 28.8004 21.8789 26.4745 21.8789C23.8958 21.8788 21.1815 20.6832 21.1815 15.9297C21.1815 13.9582 22.6621 11.0553 24.8827 9.2627C26.0795 8.29679 27.4916 7.65234 29.0038 7.65234C31.1107 7.65249 32.4592 9.91181 32.2059 11.7822C32.1228 12.4049 31.7487 13.3327 31.1034 14.2305C29.9691 15.808 27.9962 17.2932 25.2782 16.874C25.2895 16.9012 25.7989 18.1043 27.1659 18.1045C27.7727 18.1045 29.7117 17.9635 32.1386 14.2109C33.7279 11.7529 33.7907 10.9396 33.993 9.82812C33.9903 9.82613 33.285 9.31869 33.285 7.77148C33.2851 6.49051 34.5328 4.77148 36.2518 4.77148ZM78.7811 26.5605L79.9345 23.2695H80.4638L78.7811 27.8887L77.3602 24.3525L75.9393 27.8887L74.2557 23.2695H74.787L75.9393 26.5605L77.3602 23.043L78.7811 26.5605ZM64.8778 26.6719V23.2705H65.3671V27.8604L61.9423 24.2773V27.6621H61.453V23.084L64.8778 26.6719ZM54.0009 23.1943C55.254 23.1943 56.2899 24.2138 56.2899 25.4727C56.2898 26.7372 55.2539 27.7383 54.0009 27.7383C52.7494 27.7382 51.712 26.7371 51.7118 25.4727C51.7118 24.2138 52.7493 23.1944 54.0009 23.1943ZM68.4042 23.1943C69.6577 23.1944 70.6932 24.2139 70.6932 25.4727C70.6931 26.7371 69.6576 27.7382 68.4042 27.7383C67.1521 27.7383 66.1153 26.7372 66.1151 25.4727C66.1151 24.2138 67.152 23.1943 68.4042 23.1943ZM59.0067 23.7246H57.497V25.0293H58.9598V25.4834H57.497V27.6621H57.0087V23.2695H59.0067V23.7246ZM84.0604 27.6621H83.5184L83.0009 26.415H81.1249L80.5956 27.6621H80.0595L82.0858 23.0596L84.0604 27.6621ZM72.0468 23.2695C72.8782 23.2695 73.6542 23.4914 73.6542 24.4824C73.6541 25.1574 73.229 25.6351 72.5536 25.6924L73.9491 27.6611H73.3514L72.0233 25.7344H71.9003V27.6611H71.411V23.2695H72.0468ZM85.2333 25.2266L86.3514 23.2695H86.9159L85.4794 25.7734V27.6611H84.9882V25.7734L83.5516 23.2695H84.1161L85.2333 25.2266ZM54.0009 23.6494C52.9935 23.6495 52.2011 24.4705 52.2011 25.4668C52.2012 26.4563 53.0051 27.2841 54.0009 27.2842C54.9962 27.2842 55.8006 26.4563 55.8007 25.4668C55.8007 24.4705 55.0082 23.6494 54.0009 23.6494ZM68.4042 23.6494C67.3968 23.6494 66.6034 24.4705 66.6034 25.4668C66.6035 26.4563 67.4089 27.2842 68.4042 27.2842C69.3999 27.2841 70.2039 26.4562 70.204 25.4668C70.204 24.4705 69.4115 23.6495 68.4042 23.6494ZM81.3241 25.9609H82.8095L82.0741 24.2012L81.3241 25.9609ZM71.9003 25.3037H72.0507C72.6051 25.3037 73.1649 25.198 73.1649 24.5166C73.1648 23.7941 72.6343 23.7246 72.0468 23.7246H71.9003V25.3037ZM16.743 0C18.5658 0.000119011 19.9781 0.844586 20.9032 1.96777C21.7523 2.9982 22.1918 4.27048 22.16 5.33789C22.1437 5.89516 22.0454 6.40214 21.8944 6.86133H21.8925C21.4409 8.23889 20.5237 9.20528 19.9511 9.91211C20.461 10.3733 20.6825 11.529 20.7753 12.4453C20.8387 13.0699 20.8436 13.5807 20.8436 13.6836C20.8436 13.9373 20.6589 16.1114 19.1591 18.2021C16.8176 21.3864 14.5566 21.7245 13.5966 21.7246C12.282 21.7246 8.67406 21.1352 8.67371 17.999C8.67371 16.7017 9.79806 16.0938 10.2929 16.0938C11.3367 16.0939 11.3489 17.6279 13.327 17.6279C15.4166 17.6279 16.8671 15.9925 16.6317 13.1943C16.6317 13.1943 14.752 13.8412 13.5302 13.5654C13.2013 13.4923 12.903 13.3802 12.6347 13.2402L12.6327 13.2441C11.4378 12.6219 10.8144 11.4206 10.663 10.2666C10.6622 10.2717 10.2947 12.5495 8.90418 15.1221L8.90711 15.124C7.855 17.0666 6.21624 19.1867 3.70008 20.6436C3.70008 20.6436 3.1106 22.0938 1.96473 22.0938C0.750748 22.0933 -0.417089 20.2282 0.145394 17.4805C0.495443 15.7735 0.959612 14.0757 1.63758 12.3721C2.79066 9.4836 4.57409 6.53141 7.5116 3.28711C7.5116 3.28711 7.93181 -0.320186 10.4784 1.33105C10.5093 1.31518 12.5252 0.285047 15.5263 0.0478516C15.9157 0.017558 16.3228 0 16.743 0ZM88.2538 13.4863C88.2434 13.5024 87.9234 13.9988 87.3163 14.7676C86.8816 15.3225 86.2954 16.0175 85.5741 16.7734C85.5786 16.7932 85.8184 17.8348 86.9042 17.835C87.7843 17.835 88.2441 17.4594 88.4745 16.9668C88.8552 16.1429 88.5929 14.9894 88.5409 14.6826C88.4643 14.2356 88.2579 13.5011 88.2538 13.4863ZM62.3798 11.5918C61.8066 11.3223 60.723 11.821 59.3798 13.5127C59.1548 13.7967 58.9647 14.0906 58.8075 14.3828L58.8036 14.3799C58.1047 15.6847 58.0639 16.9628 58.5028 17.2109C58.8726 17.4182 60.467 16.8419 61.453 15.29C61.7227 14.8636 61.9385 14.456 62.1063 14.0752L62.1122 14.0732C62.7035 12.7294 62.6961 11.7404 62.3798 11.5918ZM48.5223 11.7607C47.9094 11.7609 47.2932 12.0184 46.2938 13.4922C46.2823 13.5081 46.2717 13.5247 46.2606 13.54C45.0308 15.3845 45.2272 16.9971 46.0966 16.9971C46.9726 16.9969 48.024 15.8691 48.6356 14.7334C48.8044 14.4208 48.933 14.1256 49.0272 13.8506C49.4646 12.5842 49.1604 11.7607 48.5223 11.7607ZM7.34754 9.15234C7.34754 9.15234 5.34256 11.078 4.45106 14.0723H4.4491C4.26356 14.6944 4.12735 15.3802 4.06629 16.0869C4.06629 16.0869 4.85606 15.3398 5.66004 14.1045V14.1035C6.46493 12.8634 7.28888 11.1165 7.34754 9.15234ZM27.9247 11.4014C27.9247 11.4014 27.4208 11.4132 26.9149 11.7334C26.8587 11.7699 26.8067 11.8062 26.7557 11.8428C25.7234 12.5897 25.6669 13.6176 25.6659 13.6367C26.3581 13.652 27.006 13.4507 27.5194 13.1729C28.1823 12.8138 28.6194 12.3261 28.6317 12.0029C28.6495 11.5813 28.2723 11.4014 27.9247 11.4014ZM14.5018 9.29297C14.0845 9.35652 13.5641 9.6356 13.6395 10.125C13.6708 10.3269 13.7758 10.5086 13.9647 10.6191L13.9667 10.6172C14.1344 10.7156 14.3709 10.7579 14.6854 10.7109C14.9331 10.673 15.1637 10.5678 15.3055 10.4053H15.3085C15.4204 10.2755 15.4788 10.108 15.4481 9.9043C15.3722 9.41575 14.8134 9.24536 14.5018 9.29297ZM16.2597 3.77539C13.6139 3.77539 11.4176 5.3232 11.3886 5.34375C11.5404 6.08532 11.119 8.10938 11.119 8.10938C13.5512 5.15262 17.5516 6.77051 17.5516 6.77051C17.9319 6.30857 18.0956 5.86432 18.1054 5.46484C18.1164 4.93596 17.8541 4.48169 17.4628 4.18164C17.1272 3.9244 16.6967 3.7754 16.2597 3.77539Z" fill="white"/>
</svg>
