<svg width="86" height="28" viewBox="0 0 86 28" fill="none" xmlns="http://www.w3.org/2000/svg">
<path d="M40.8087 0H36.7729V4.03576H40.8087V0Z" fill="white"/>
<path d="M58.9054 8.00732C59.3348 8.00732 59.6782 8.09319 59.9358 8.28639C60.1934 8.45813 60.3437 8.7372 60.3437 9.1236C60.3437 9.33827 60.2793 9.51 60.172 9.68173C60.0646 9.85347 59.8929 9.9608 59.6997 10.0467C59.9358 10.1325 60.129 10.2613 60.2578 10.4331C60.3866 10.6048 60.451 10.8195 60.451 11.0771C60.451 11.3561 60.3866 11.5708 60.2364 11.7425C60.1076 11.9143 59.9144 12.0431 59.6782 12.129C59.4421 12.2148 59.1845 12.2578 58.8839 12.2578H56.9734V8.00732H58.9054ZM59.3348 9.61733C59.4636 9.53147 59.5065 9.40267 59.5065 9.23093C59.5065 9.0592 59.4421 8.9304 59.3348 8.84453C59.2274 8.75866 59.0557 8.7372 58.841 8.7372H57.8535V9.72467H58.841C59.0557 9.72467 59.2274 9.7032 59.3348 9.61733ZM59.4421 11.3561C59.5709 11.2703 59.6568 11.1415 59.6568 10.9483C59.6568 10.7765 59.5924 10.6477 59.4636 10.5619C59.3348 10.476 59.163 10.4331 58.9484 10.4331H57.8965V11.4849H58.9054C59.1201 11.4849 59.2918 11.442 59.4421 11.3561Z" fill="white"/>
<path d="M61.8036 12.1286C61.5675 11.9998 61.3958 11.828 61.2884 11.6134C61.1596 11.3772 61.1167 11.1196 61.1167 10.8191V8.93002H61.9539V10.862C61.9539 11.0767 62.0183 11.2484 62.1471 11.3772C62.2759 11.506 62.4262 11.5704 62.6409 11.5704C62.8555 11.5704 63.0058 11.506 63.1346 11.3772C63.2634 11.2484 63.3278 11.0767 63.3278 10.862V8.93002H64.165V10.8191C64.165 11.1196 64.1006 11.3987 63.9933 11.6134C63.8645 11.8495 63.6927 12.0212 63.4781 12.1286C63.2419 12.2574 62.9843 12.3218 62.6838 12.3218C62.3832 12.3218 62.0398 12.2359 61.8036 12.1286Z" fill="white"/>
<path d="M65.3884 12.236C65.1738 12.1931 64.9806 12.1072 64.8303 12.0214V11.27H64.8732C65.0235 11.3774 65.2167 11.4418 65.4099 11.5062C65.6031 11.5706 65.8178 11.592 66.011 11.592C66.1612 11.592 66.2686 11.5706 66.3759 11.5062C66.4833 11.4632 66.5262 11.3774 66.5262 11.27C66.5262 11.1842 66.5047 11.1198 66.4403 11.0768C66.3759 11.0339 66.29 10.991 66.1827 10.9695L65.6675 10.8407C65.3884 10.7763 65.1738 10.6475 65.0235 10.4972C64.8518 10.347 64.7874 10.1323 64.7874 9.89616C64.7874 9.66002 64.8518 9.46682 64.9591 9.31655C65.0664 9.16628 65.2382 9.03748 65.4314 8.95162C65.6246 8.86575 65.8607 8.82281 66.0968 8.82281C66.29 8.82281 66.5047 8.84428 66.6979 8.88722C66.8911 8.93015 67.0629 9.01602 67.2131 9.10188V9.85322H67.1702C67.0199 9.74589 66.8482 9.66002 66.6765 9.61709C66.4833 9.55269 66.29 9.53122 66.1183 9.53122C65.9895 9.53122 65.8607 9.55269 65.7748 9.59562C65.689 9.63855 65.6246 9.72442 65.6246 9.83176C65.6246 9.91762 65.646 9.98202 65.7104 10.025C65.7748 10.0679 65.8607 10.1108 65.968 10.1323L66.4618 10.2611C66.7194 10.3255 66.9341 10.4328 67.1058 10.6046C67.2775 10.7763 67.3634 10.9695 67.3634 11.2056C67.3634 11.4418 67.299 11.635 67.1917 11.8067C67.0843 11.957 66.9126 12.0858 66.7194 12.1502C66.5262 12.2146 66.29 12.2575 66.0324 12.2575C65.7963 12.3004 65.6031 12.279 65.3884 12.236Z" fill="white"/>
<path d="M68.1363 8.60827C68.0504 8.56534 68.0075 8.50094 67.9646 8.43654C67.9216 8.37214 67.9001 8.28627 67.9001 8.17893C67.9001 8.02867 67.9431 7.92133 68.0504 7.83547C68.1363 7.7496 68.2651 7.70667 68.4154 7.70667C68.5656 7.70667 68.673 7.7496 68.7803 7.83547C68.8876 7.92133 68.9306 8.02867 68.9306 8.17893C68.9306 8.2648 68.9091 8.35067 68.8662 8.43654C68.8232 8.5224 68.7588 8.56534 68.6944 8.60827C68.6086 8.6512 68.5227 8.67267 68.4368 8.67267C68.2866 8.67267 68.2007 8.6512 68.1363 8.60827ZM68.8018 8.90881V12.2147H67.9646V8.90881H68.8018Z" fill="white"/>
<path d="M70.4334 8.90868V9.33802C70.5407 9.16628 70.6695 9.03748 70.8413 8.95162C71.013 8.86575 71.2062 8.82281 71.4209 8.82281C71.657 8.82281 71.8502 8.86575 72.0219 8.97308C72.1937 9.05895 72.3439 9.20922 72.4298 9.38095C72.5371 9.55269 72.5801 9.76735 72.5801 9.98202V12.2146H71.7429V10.2611C71.7429 10.0464 71.6785 9.87469 71.5711 9.74589C71.4638 9.61709 71.2921 9.55269 71.0989 9.55269C70.9486 9.55269 70.8413 9.57415 70.7339 9.63855C70.6266 9.70295 70.5407 9.78882 70.4978 9.89615C70.4334 10.0035 70.4119 10.1323 70.4119 10.2611V12.2146H69.5747V8.90868H70.4334Z" fill="white"/>
<path d="M74.0181 12.0858C73.7605 11.9355 73.5673 11.7423 73.4171 11.4847C73.2668 11.2271 73.2024 10.9051 73.2024 10.5616C73.2024 10.2182 73.2668 9.91762 73.4171 9.66002C73.5673 9.40242 73.7391 9.18775 73.9967 9.03748C74.2543 8.88722 74.5333 8.82281 74.8768 8.82281C75.1988 8.82281 75.4779 8.88722 75.6926 9.03748C75.9072 9.18775 76.1004 9.38095 76.2078 9.63855C76.3151 9.89616 76.3795 10.1967 76.3795 10.5402C76.3795 10.5831 76.3795 10.6475 76.3795 10.6904C76.3795 10.7548 76.3795 10.7978 76.358 10.8407H74.0611C74.0825 11.0124 74.1255 11.1412 74.2113 11.2486C74.2972 11.3559 74.426 11.4418 74.5548 11.5062C74.6836 11.5706 74.8554 11.592 75.0271 11.592C75.2418 11.592 75.435 11.5706 75.6496 11.5062C75.8643 11.4418 76.036 11.3774 76.2078 11.27H76.2507V12.0214C76.0575 12.1287 75.8643 12.1931 75.6282 12.236C75.392 12.279 75.1559 12.3219 74.9198 12.3219C74.5977 12.3004 74.2757 12.236 74.0181 12.0858ZM75.392 9.70295C75.2632 9.57415 75.0915 9.50975 74.8768 9.50975C74.6407 9.50975 74.4475 9.57415 74.2972 9.70295C74.1469 9.83176 74.0611 10.0035 74.0396 10.2396H75.5638C75.5638 10.0035 75.5208 9.83176 75.392 9.70295Z" fill="white"/>
<path d="M77.5391 12.236C77.3244 12.1931 77.1312 12.1072 76.9809 12.0214V11.27H77.0239C77.1741 11.3774 77.3673 11.4418 77.5605 11.5062C77.7537 11.5706 77.9684 11.592 78.1616 11.592C78.3119 11.592 78.4192 11.5706 78.5265 11.5062C78.6339 11.4632 78.6768 11.3774 78.6768 11.27C78.6768 11.1842 78.6554 11.1198 78.5909 11.0768C78.5265 11.0339 78.4407 10.991 78.3333 10.9695L77.8181 10.8407C77.5391 10.7763 77.3244 10.6475 77.1741 10.4972C77.0024 10.347 76.938 10.1323 76.938 9.89616C76.938 9.66002 77.0024 9.46682 77.1097 9.31655C77.2171 9.16628 77.3888 9.03748 77.582 8.95162C77.7752 8.86575 78.0113 8.82281 78.2475 8.82281C78.4407 8.82281 78.6553 8.84428 78.8485 8.88722C79.0418 8.93015 79.2135 9.01602 79.3638 9.10188V9.85322H79.3208C79.1706 9.74589 78.9988 9.66002 78.8271 9.61709C78.6339 9.55269 78.4407 9.53122 78.2689 9.53122C78.1401 9.53122 78.0113 9.55269 77.9255 9.59562C77.8396 9.63855 77.7752 9.72442 77.7752 9.83176C77.7752 9.91762 77.7967 9.98202 77.8611 10.025C77.9255 10.0679 78.0113 10.1108 78.1187 10.1323L78.6124 10.2611C78.87 10.3255 79.0847 10.4328 79.2564 10.6046C79.4282 10.7763 79.514 10.9695 79.514 11.2056C79.514 11.4418 79.4496 11.635 79.3423 11.8067C79.235 11.957 79.0632 12.0858 78.87 12.1502C78.6768 12.2146 78.4407 12.2575 78.1831 12.2575C77.9469 12.3004 77.7323 12.279 77.5391 12.236Z" fill="white"/>
<path d="M80.5442 12.236C80.3295 12.1931 80.1363 12.1072 79.9861 12.0214V11.27H80.029C80.1793 11.3774 80.3725 11.4418 80.5657 11.5062C80.7589 11.5706 80.9735 11.592 81.1667 11.592C81.317 11.592 81.4243 11.5706 81.5317 11.5062C81.639 11.4632 81.6819 11.3774 81.6819 11.27C81.6819 11.1842 81.6605 11.1198 81.5961 11.0768C81.5317 11.0339 81.4458 10.991 81.3385 10.9695L80.8233 10.8407C80.5442 10.7763 80.3295 10.6475 80.1793 10.4972C80.0075 10.347 79.9431 10.1323 79.9431 9.89616C79.9431 9.66002 80.0075 9.46682 80.1149 9.31655C80.2222 9.16628 80.3939 9.03748 80.5871 8.95162C80.7803 8.86575 81.0165 8.82281 81.2526 8.82281C81.4458 8.82281 81.6605 8.84428 81.8537 8.88722C82.0469 8.93015 82.2186 9.01602 82.3689 9.10188V9.85322H82.326C82.1757 9.74589 82.004 9.66002 81.8322 9.61709C81.639 9.55269 81.4458 9.53122 81.2741 9.53122C81.1453 9.53122 81.0165 9.55269 80.9306 9.59562C80.8447 9.63855 80.7803 9.72442 80.7803 9.83176C80.7803 9.91762 80.8018 9.98202 80.8662 10.025C80.9306 10.0679 81.0165 10.1108 81.1238 10.1323L81.6175 10.2611C81.8751 10.3255 82.0898 10.4328 82.2616 10.6046C82.4333 10.7763 82.5192 10.9695 82.5192 11.2056C82.5192 11.4418 82.4548 11.635 82.3474 11.8067C82.2401 11.957 82.0683 12.0858 81.8751 12.1502C81.6819 12.2146 81.4458 12.2575 81.1882 12.2575C80.9521 12.3004 80.7589 12.279 80.5442 12.236Z" fill="white"/>
<path d="M57.596 19.964C57.3384 19.9211 57.1238 19.8352 56.9091 19.7279V18.9336H56.952C57.1667 19.041 57.3814 19.1268 57.6605 19.1698C57.9181 19.2342 58.1757 19.2556 58.4118 19.2556C58.6265 19.2556 58.7982 19.2127 58.9485 19.1268C59.0987 19.041 59.1846 18.9336 59.1846 18.7619C59.1846 18.6331 59.1202 18.5472 59.0129 18.4614C58.9055 18.3755 58.7553 18.3326 58.5621 18.2896L57.8751 18.1179C57.5531 18.032 57.274 17.9032 57.1023 17.71C56.9091 17.5168 56.8232 17.2592 56.8232 16.9372C56.8232 16.6367 56.9091 16.4006 57.0594 16.2073C57.2096 16.0141 57.4243 15.8639 57.6819 15.778C57.9395 15.6921 58.2186 15.6277 58.5406 15.6277C59.0343 15.6277 59.4851 15.7351 59.8501 15.9283V16.7226H59.8072C59.6139 16.6152 59.3993 16.5294 59.1631 16.4864C58.927 16.4435 58.6909 16.4006 58.4547 16.4006C58.3259 16.4006 58.2186 16.422 58.1113 16.4435C58.0039 16.4864 57.8966 16.5294 57.8322 16.5938C57.7678 16.6582 57.7249 16.744 57.7249 16.8514C57.7249 16.9802 57.7678 17.0875 57.8751 17.1519C57.9825 17.2163 58.1113 17.2807 58.283 17.3236L58.9485 17.4954C59.2919 17.5812 59.5495 17.7315 59.7642 17.9247C59.9789 18.1179 60.0648 18.3755 60.0648 18.6975C60.0648 18.998 59.9789 19.2342 59.8286 19.4274C59.6784 19.6206 59.4637 19.7708 59.2061 19.8567C58.9485 19.9426 58.6479 20.007 58.3259 20.007C58.0898 20.0284 57.8322 20.007 57.596 19.964Z" fill="white"/>
<path d="M61.3531 19.8138C61.0955 19.6635 60.8808 19.4488 60.7305 19.1912C60.5803 18.9336 60.5159 18.6331 60.5159 18.2896C60.5159 17.9462 60.5803 17.6456 60.7305 17.388C60.8808 17.1304 61.074 16.9157 61.3531 16.7655C61.6107 16.6152 61.9112 16.5508 62.2332 16.5508C62.4264 16.5508 62.5982 16.5723 62.7699 16.6367C62.9416 16.6796 63.0919 16.7655 63.2422 16.8513V17.6027H63.1992C63.0704 17.4954 62.9416 17.4309 62.7914 17.388C62.6411 17.3451 62.4694 17.3236 62.3191 17.3236C62.1259 17.3236 61.9542 17.3665 61.8039 17.4524C61.6536 17.5383 61.5463 17.6456 61.4604 17.7959C61.3745 17.9462 61.3531 18.1179 61.3531 18.3111C61.3531 18.5043 61.396 18.676 61.4604 18.8263C61.5248 18.9766 61.6536 19.0839 61.8039 19.1698C61.9542 19.2556 62.1259 19.2986 62.3191 19.2986C62.4908 19.2986 62.6411 19.2771 62.7914 19.2127C62.9416 19.1698 63.0919 19.0839 63.1992 18.998H63.2422V19.7494C63.0919 19.8567 62.9416 19.9211 62.7699 19.964C62.5982 20.007 62.4264 20.0499 62.2332 20.0499C61.9112 20.0284 61.6322 19.964 61.3531 19.8138Z" fill="white"/>
<path d="M64.7232 15.5846V17.0658C64.8305 16.8941 64.9593 16.7653 65.1311 16.6794C65.3028 16.5936 65.496 16.5506 65.7107 16.5506C65.9468 16.5506 66.14 16.5936 66.3117 16.7009C66.4835 16.7868 66.6337 16.937 66.7196 17.1088C66.8269 17.2805 66.8699 17.4952 66.8699 17.7098V19.9424H66.0327V17.9889C66.0327 17.7742 65.9683 17.6025 65.8609 17.4737C65.7536 17.3449 65.5819 17.2805 65.3887 17.2805C65.2384 17.2805 65.1311 17.302 65.0237 17.3664C64.9164 17.4308 64.8305 17.4952 64.7876 17.6025C64.7232 17.7098 64.7017 17.8386 64.7017 17.9674V19.9209H63.8645V15.5846H64.7232Z" fill="white"/>
<path d="M68.3297 19.8138C68.0721 19.6635 67.8574 19.4703 67.7286 19.1912C67.5998 18.9122 67.5139 18.6331 67.5139 18.2896C67.5139 17.9462 67.5783 17.6456 67.7286 17.388C67.8789 17.1304 68.0721 16.9157 68.3297 16.7655C68.5873 16.6152 68.8878 16.5508 69.2313 16.5508C69.5747 16.5508 69.8753 16.6152 70.1329 16.7655C70.3905 16.9157 70.6052 17.1089 70.734 17.388C70.8628 17.6671 70.9486 17.9462 70.9486 18.2896C70.9486 18.6331 70.8842 18.9336 70.734 19.1912C70.5837 19.4488 70.3905 19.6635 70.1329 19.8138C69.8753 19.964 69.5747 20.0284 69.2313 20.0284C68.8878 20.0284 68.5873 19.964 68.3297 19.8138ZM69.7036 19.1483C69.8324 19.0624 69.9397 18.9336 70.0256 18.7834C70.1114 18.6331 70.1329 18.4614 70.1329 18.2896C70.1329 18.1179 70.09 17.9462 70.0256 17.7959C69.9397 17.6456 69.8538 17.5383 69.7036 17.4524C69.5747 17.3665 69.403 17.3236 69.2313 17.3236C69.0595 17.3236 68.8878 17.3665 68.759 17.4524C68.6302 17.5383 68.5229 17.6671 68.437 17.7959C68.3511 17.9462 68.3297 18.1179 68.3297 18.2896C68.3297 18.4614 68.3726 18.6331 68.437 18.7834C68.5229 18.9336 68.6087 19.0624 68.759 19.1483C68.8878 19.2342 69.0595 19.2771 69.2313 19.2771C69.403 19.2771 69.5533 19.2342 69.7036 19.1483Z" fill="white"/>
<path d="M72.2581 19.8138C72.0005 19.6635 71.7859 19.4703 71.6571 19.1912C71.5283 18.9122 71.4424 18.6331 71.4424 18.2896C71.4424 17.9462 71.5068 17.6456 71.6571 17.388C71.8073 17.1304 72.0005 16.9157 72.2581 16.7655C72.5157 16.6152 72.8163 16.5508 73.1597 16.5508C73.5032 16.5508 73.8038 16.6152 74.0614 16.7655C74.319 16.9157 74.5336 17.1089 74.6624 17.388C74.7912 17.6671 74.8771 17.9462 74.8771 18.2896C74.8771 18.6331 74.8127 18.9336 74.6624 19.1912C74.5122 19.4488 74.319 19.6635 74.0614 19.8138C73.8038 19.964 73.5032 20.0284 73.1597 20.0284C72.8163 20.0284 72.5157 19.964 72.2581 19.8138ZM73.632 19.1483C73.7608 19.0624 73.8682 18.9336 73.954 18.7834C74.0399 18.6331 74.0614 18.4614 74.0614 18.2896C74.0614 18.1179 74.0184 17.9462 73.954 17.7959C73.8682 17.6456 73.7823 17.5383 73.632 17.4524C73.5032 17.3665 73.3315 17.3236 73.1597 17.3236C72.988 17.3236 72.8163 17.3665 72.6875 17.4524C72.5587 17.5383 72.4513 17.6671 72.3655 17.7959C72.2796 17.9462 72.2581 18.1179 72.2581 18.2896C72.2581 18.4614 72.3011 18.6331 72.3655 18.7834C72.4513 18.9336 72.5372 19.0624 72.6875 19.1483C72.8163 19.2342 72.988 19.2771 73.1597 19.2771C73.3315 19.2771 73.4817 19.2342 73.632 19.1483Z" fill="white"/>
<path d="M76.337 15.5846V19.9424H75.4998V15.5846H76.337Z" fill="white"/>
<path d="M57.8968 23.4633V26.9195H59.8288V27.6708H57.0381V23.4633H57.8968Z" fill="white"/>
<path d="M60.8803 27.5207C60.6656 27.3704 60.4724 27.1557 60.3651 26.8981C60.2363 26.6405 60.1934 26.34 60.1934 26.0395C60.1934 25.7175 60.2578 25.4384 60.3651 25.1808C60.4724 24.9232 60.6656 24.7085 60.8803 24.5582C61.095 24.408 61.374 24.3221 61.6746 24.3221C61.8893 24.3221 62.0825 24.365 62.2757 24.4509C62.4689 24.5368 62.5977 24.6656 62.705 24.8373V24.3865H63.5422V27.6924H62.705V27.2201C62.5977 27.3919 62.4474 27.5207 62.2757 27.6065C62.1039 27.6924 61.8893 27.7353 61.6746 27.7353C61.3526 27.7568 61.095 27.6709 60.8803 27.5207ZM62.3186 26.8767C62.4474 26.7908 62.5547 26.662 62.6191 26.5117C62.6835 26.3615 62.7265 26.1897 62.7265 26.018C62.7265 25.8463 62.6835 25.6745 62.6191 25.5243C62.5547 25.374 62.4474 25.2667 62.3186 25.1593C62.1898 25.052 62.0395 25.0305 61.8678 25.0305C61.6961 25.0305 61.5458 25.0735 61.417 25.1593C61.2882 25.2452 61.1808 25.374 61.1164 25.5243C61.052 25.6745 61.0091 25.8463 61.0091 26.018C61.0091 26.2112 61.052 26.3615 61.1164 26.5117C61.1808 26.662 61.2882 26.7693 61.417 26.8767C61.5458 26.9625 61.6961 27.0055 61.8678 27.0055C62.0395 27.0055 62.1898 26.9625 62.3186 26.8767Z" fill="white"/>
<path d="M65.0021 27.585C64.766 27.4562 64.5943 27.2845 64.4869 27.0698C64.3581 26.8337 64.3152 26.5761 64.3152 26.2756V24.3865H65.1524V26.3185C65.1524 26.5332 65.2168 26.7049 65.3456 26.8337C65.4744 26.9625 65.6247 27.0269 65.8393 27.0269C66.054 27.0269 66.2043 26.9625 66.3331 26.8337C66.4619 26.7049 66.5263 26.5332 66.5263 26.3185V24.3865H67.3635V26.2756C67.3635 26.5761 67.2991 26.8552 67.1918 27.0698C67.063 27.306 66.8912 27.4777 66.6766 27.585C66.4404 27.7138 66.1828 27.7782 65.8823 27.7782C65.5817 27.7782 65.2383 27.6924 65.0021 27.585Z" fill="white"/>
<path d="M68.5874 27.6924C68.3727 27.6495 68.1795 27.5636 68.0293 27.4778V26.7264H68.0722C68.2225 26.8338 68.4157 26.8982 68.6089 26.9626C68.8021 27.027 69.0167 27.0484 69.2099 27.0484C69.3602 27.0484 69.4675 27.027 69.5749 26.9626C69.6822 26.9196 69.7251 26.8338 69.7251 26.7264C69.7251 26.6406 69.7037 26.5762 69.6393 26.5332C69.5749 26.4903 69.489 26.4474 69.3817 26.4259L68.8665 26.2971C68.5874 26.2327 68.3727 26.1039 68.2225 25.9536C68.0507 25.8033 67.9863 25.5887 67.9863 25.3525C67.9863 25.1164 68.0507 24.9232 68.1581 24.7729C68.2654 24.6227 68.4371 24.4939 68.6303 24.408C68.8235 24.3221 69.0597 24.2792 69.2958 24.2792C69.489 24.2792 69.7037 24.3007 69.8969 24.3651C70.0901 24.4295 70.2618 24.4939 70.4121 24.5797V25.3311H70.3692C70.2189 25.2237 70.0472 25.1379 69.8754 25.0949C69.6822 25.0305 69.489 25.0091 69.3173 25.0091C69.1885 25.0091 69.0597 25.0305 68.9738 25.0949C68.8879 25.1379 68.8235 25.2237 68.8235 25.3311C68.8235 25.4169 68.845 25.4813 68.9094 25.5243C68.9738 25.5672 69.0597 25.6101 69.167 25.6316L69.6608 25.7604C69.9184 25.8248 70.133 25.9321 70.3048 26.1039C70.4765 26.2756 70.5624 26.4688 70.5624 26.705C70.5624 26.9411 70.498 27.1558 70.3906 27.306C70.2833 27.4563 70.1116 27.5851 69.9184 27.6495C69.7252 27.7139 69.489 27.7568 69.2314 27.7568C68.9953 27.7568 68.8021 27.7354 68.5874 27.6924Z" fill="white"/>
<path d="M71.7211 27.5207C71.5065 27.3704 71.3133 27.1557 71.2059 26.8981C71.0771 26.6405 71.0342 26.34 71.0342 26.0395C71.0342 25.7175 71.0986 25.4384 71.2059 25.1808C71.3133 24.9232 71.5065 24.7085 71.7211 24.5582C71.9358 24.408 72.2149 24.3221 72.5154 24.3221C72.7301 24.3221 72.9233 24.365 73.1165 24.4509C73.3097 24.5368 73.4385 24.6656 73.5458 24.8373V24.3865H74.383V27.6924H73.5458V27.2201C73.4385 27.3919 73.2882 27.5207 73.1165 27.6065C72.9447 27.6924 72.7301 27.7353 72.5154 27.7353C72.2149 27.7568 71.9358 27.6709 71.7211 27.5207ZM73.1594 26.8767C73.2882 26.7908 73.3956 26.662 73.46 26.5117C73.5244 26.3615 73.5673 26.1897 73.5673 26.018C73.5673 25.8463 73.5244 25.6745 73.46 25.5243C73.3956 25.374 73.2882 25.2667 73.1594 25.1593C73.0306 25.052 72.8803 25.0305 72.7086 25.0305C72.5369 25.0305 72.3866 25.0735 72.2578 25.1593C72.129 25.2452 72.0217 25.374 71.9573 25.5243C71.8929 25.6745 71.8499 25.8463 71.8499 26.018C71.8499 26.2112 71.8929 26.3615 71.9573 26.5117C72.0217 26.662 72.129 26.7693 72.2578 26.8767C72.3866 26.9625 72.5369 27.0055 72.7086 27.0055C72.8803 27.0055 73.0306 26.9625 73.1594 26.8767Z" fill="white"/>
<path d="M76.0147 24.3651V24.7944C76.122 24.6227 76.2508 24.4939 76.4226 24.408C76.5943 24.3221 76.7875 24.2792 77.0022 24.2792C77.2383 24.2792 77.4315 24.3221 77.6032 24.4295C77.775 24.5153 77.9252 24.6656 78.0111 24.8373C78.1184 25.0091 78.1614 25.2237 78.1614 25.4384V27.671H77.3242V25.7175C77.3242 25.5028 77.2598 25.3311 77.1524 25.2023C77.0451 25.0735 76.8734 25.0091 76.6802 25.0091C76.5299 25.0091 76.4226 25.0305 76.3152 25.0949C76.2079 25.1593 76.122 25.2237 76.0791 25.3311C76.0147 25.4384 75.9932 25.5672 75.9932 25.696V27.6495H75.156V24.3436H76.0147V24.3651Z" fill="white"/>
<path d="M79.7718 24.3651V24.7944C79.8791 24.6227 80.0079 24.4939 80.1796 24.408C80.3514 24.3221 80.5446 24.2792 80.7592 24.2792C80.9954 24.2792 81.1886 24.3221 81.3603 24.4295C81.5321 24.5153 81.6823 24.6656 81.7682 24.8373C81.8755 25.0091 81.9185 25.2237 81.9185 25.4384V27.671H81.0813V25.7175C81.0813 25.5028 81.0168 25.3311 80.9095 25.2023C80.8022 25.0735 80.6304 25.0091 80.4372 25.0091C80.287 25.0091 80.1796 25.0305 80.0723 25.0949C79.965 25.1593 79.8791 25.2237 79.8362 25.3311C79.7718 25.4384 79.7503 25.5672 79.7503 25.696V27.6495H78.9131V24.3436H79.7718V24.3651Z" fill="white"/>
<path d="M83.378 27.5422C83.1204 27.3919 82.9272 27.1987 82.7769 26.9411C82.6267 26.6835 82.5623 26.383 82.5623 26.018C82.5623 25.6745 82.6267 25.374 82.7769 25.1164C82.9272 24.8588 83.0989 24.6441 83.3565 24.4939C83.6141 24.3436 83.8932 24.2792 84.2367 24.2792C84.5587 24.2792 84.8378 24.3436 85.0524 24.4939C85.2671 24.6441 85.4603 24.8373 85.5676 25.0949C85.675 25.3525 85.7394 25.6531 85.7394 25.9751C85.7394 26.018 85.7394 26.0824 85.7394 26.1253C85.7394 26.1897 85.7394 26.2327 85.7179 26.2756H83.4209C83.4424 26.4474 83.4853 26.5762 83.5712 26.6835C83.6571 26.7908 83.7859 26.8767 83.9147 26.9411C84.0435 27.0055 84.2152 27.027 84.3869 27.027C84.6016 27.027 84.7948 27.0055 85.0095 26.9411C85.2242 26.8767 85.3959 26.8123 85.5676 26.705H85.6106V27.4563C85.4174 27.5636 85.2242 27.628 84.988 27.671C84.7519 27.7139 84.5158 27.7568 84.2796 27.7568C83.9361 27.7568 83.6356 27.6924 83.378 27.5422ZM84.7519 25.1593C84.6231 25.0305 84.4513 24.9661 84.2367 24.9661C84.0005 24.9661 83.8073 25.0305 83.6571 25.1593C83.5068 25.2881 83.4209 25.4599 83.3995 25.696H84.9236C84.9236 25.4599 84.8592 25.2881 84.7519 25.1593Z" fill="white"/>
<path d="M8.69413 8.05032C10.6691 8.05032 12.2791 8.45819 13.5027 9.2954C14.7264 10.1326 15.3489 11.4206 15.3489 13.138C15.3489 14.104 15.0913 14.9626 14.5546 15.714C14.018 16.4653 13.3095 17.0449 12.3865 17.4313C13.5242 17.8177 14.3829 18.3973 15.0054 19.1916C15.628 19.9859 15.9285 20.9733 15.9285 22.1325C15.9285 23.3776 15.6065 24.408 14.984 25.2023C14.3614 25.9966 13.5027 26.5762 12.4294 26.9626C11.356 27.349 10.1539 27.5207 8.80147 27.5207H0V8.05032H8.69413ZM10.6476 15.4778C11.2058 15.1129 11.4848 14.5333 11.4848 13.739C11.4848 12.9233 11.2272 12.3222 10.6691 11.9787C10.1324 11.6353 9.38108 11.4421 8.43653 11.4421H3.88553V16.036H8.47947C9.35961 16.036 10.0895 15.8642 10.6476 15.4778ZM11.077 23.5279C11.721 23.1415 12.043 22.4975 12.043 21.6173C12.043 20.8016 11.7424 20.222 11.1199 19.8141C10.4974 19.4277 9.70308 19.2131 8.78 19.2131H3.88553V24.1075H8.56533C9.59575 24.129 10.4544 23.9358 11.077 23.5279Z" fill="white"/>
<path d="M22.2397 27.5851C21.0804 27.3275 20.05 26.9626 19.1055 26.4903V22.7766H19.3201C20.2647 23.2488 21.338 23.6352 22.5617 23.8928C23.7853 24.1504 24.9445 24.3007 26.0608 24.3007C27.0268 24.3007 27.864 24.1075 28.5724 23.7426C29.2808 23.3776 29.6458 22.8195 29.6458 22.0467C29.6458 21.4671 29.3882 21.0163 28.873 20.7157C28.3577 20.3937 27.6708 20.1147 26.8336 19.9L23.6994 19.1272C22.1753 18.7408 20.9731 18.0968 20.093 17.1952C19.2128 16.2936 18.8049 15.1129 18.8049 13.6532C18.8049 12.3222 19.1484 11.1845 19.8783 10.2829C20.5867 9.38126 21.5312 8.71579 22.7334 8.26499C23.9141 7.81419 25.245 7.59952 26.7048 7.59952C29.0018 7.59952 31.0197 8.07179 32.737 9.03779V12.7516H32.5009C31.5993 12.2578 30.6118 11.8714 29.517 11.6353C28.4221 11.3777 27.3488 11.2703 26.2754 11.2703C25.6958 11.2703 25.1592 11.3562 24.644 11.5065C24.1287 11.6567 23.6994 11.8929 23.3559 12.2363C23.0125 12.5584 22.8407 12.9662 22.8407 13.4814C22.8407 14.0825 23.0769 14.5333 23.5706 14.8553C24.0429 15.1773 24.6869 15.4349 25.4597 15.6281L28.5724 16.4009C30.1395 16.8088 31.3846 17.4528 32.3077 18.3759C33.2308 19.2989 33.6816 20.4581 33.6816 21.8964C33.6816 23.2274 33.3166 24.3651 32.5867 25.2882C31.8569 26.1898 30.8909 26.8767 29.6672 27.306C28.4436 27.7568 27.1127 27.9715 25.6314 27.9715C24.5152 27.9501 23.3774 27.8212 22.2397 27.5851Z" fill="white"/>
<path d="M40.7873 8.05032V24.0002H48.8374V27.5207H36.7515V8.05032H40.7873Z" fill="white"/>
<path d="M40.8087 8.05032H36.7729V12.0861H40.8087V8.05032Z" fill="white"/>
<path d="M48.8585 8.05032H44.8228V12.0861H48.8585V8.05032Z" fill="white"/>
<path d="M52.8947 4.01456H48.8589V8.05032H52.8947V4.01456Z" fill="white"/>
<path d="M48.8585 0H44.8228V4.03576H48.8585V0Z" fill="white"/>
</svg>
