<svg width="103" height="19" viewBox="0 0 103 19" fill="none" xmlns="http://www.w3.org/2000/svg">
<path d="M52.2998 13.7996C51.2998 13.7996 49.7998 13.5996 48.7998 13.2996V4.99971C49.6998 4.59971 51.1998 4.29971 52.1998 4.29971C54.9998 4.29971 55.8998 6.39969 55.8998 8.89967C55.8998 11.2997 55.2998 13.7996 52.2998 13.7996ZM52.0998 5.2997C51.3998 5.2997 50.6998 5.4997 49.9998 5.5997V12.4996C50.5998 12.6996 51.2998 12.8996 51.8998 12.8996C52.7998 12.8996 53.3998 12.7996 53.9998 12.0996C54.5998 11.4996 54.7998 9.79966 54.7998 8.99967C54.7998 7.09969 54.2998 5.2997 52.0998 5.2997ZM61.4998 12.7996C60.4998 13.3996 60.0998 13.7996 58.9998 13.7996C58.3998 13.7996 57.8998 13.5996 57.4998 13.2996C57.1998 12.8996 56.9998 12.4996 56.9998 11.9996C56.9998 11.4996 57.1998 11.0997 57.4998 10.6997C57.8998 10.2997 58.4998 10.1997 59.1998 9.99966C59.1998 9.99966 61.2998 9.59967 61.2998 9.49967V8.39968C61.2998 7.89968 60.5998 7.69968 60.0998 7.79968C59.0998 7.99968 58.5998 8.19968 57.6998 8.49968L57.4998 7.59968C58.2998 7.29969 59.1998 6.99969 60.0998 6.89969C61.2998 6.79969 62.4998 7.29969 62.4998 8.49968V12.1996L62.9998 13.1996L61.9998 13.7996L61.4998 12.7996ZM61.2998 10.3997C60.8998 10.4997 59.2998 10.7997 59.2998 10.7997C58.5998 10.8997 57.9998 11.2997 57.9998 11.8996C57.9998 12.4996 58.4998 12.7996 59.0998 12.7996C59.9998 12.7996 60.4998 12.3996 61.1998 11.8996V10.3997H61.2998ZM69.6998 13.5996H68.5998V8.79967C68.5998 8.09968 68.1998 7.79968 67.4998 7.79968C66.7998 7.79968 66.1998 8.09968 65.7998 8.39968L65.3998 8.69967V13.5996H64.2998V8.49968L63.7998 7.49968L64.7998 6.99969L65.2998 7.89968L66.1998 7.39969C66.5998 7.19969 67.0998 6.89969 67.7998 6.89969C68.3998 6.89969 68.8998 7.09969 69.2998 7.39969C69.6998 7.79968 69.8998 8.29968 69.8998 8.89967V13.5996H69.6998ZM80.6998 13.5996H79.5998V8.89967C79.5998 8.29968 79.3998 7.79968 78.6998 7.79968C78.4998 7.79968 78.2998 7.89968 78.0998 7.89968C77.8998 7.99968 76.6998 8.49968 76.6998 8.69967V13.5996H75.5998V8.89967C75.5998 8.29968 75.3998 7.79968 74.6998 7.79968C74.4998 7.79968 74.2998 7.79968 74.0998 7.89968C73.8998 7.99968 72.6998 8.49968 72.6998 8.69967V13.5996H71.5998V8.49968L71.0998 7.49968L71.9998 6.99969L72.4998 7.89968C73.3998 7.39969 73.9998 6.89969 74.8998 6.89969C75.5998 6.89969 76.1998 7.19969 76.4998 7.89968C76.4998 7.89968 77.4998 7.29969 77.7998 7.19969C78.0998 7.09969 78.4998 6.89969 78.7998 6.89969C79.8998 6.89969 80.5998 7.49968 80.5998 8.69967L80.6998 13.5996ZM86.5998 12.7996C85.5998 13.3996 85.1998 13.7996 84.0998 13.7996C83.4998 13.7996 82.9998 13.5996 82.5998 13.2996C82.2998 12.9996 82.0998 12.5996 82.0998 11.9996C82.0998 11.4996 82.2998 11.0997 82.5998 10.6997C82.9998 10.2997 83.5998 10.1997 84.2998 9.99966C84.2998 9.99966 86.3998 9.59967 86.3998 9.49967V8.39968C86.3998 7.89968 85.6998 7.69968 85.1998 7.79968C84.1998 7.99968 83.6998 8.19968 82.7998 8.49968L82.5998 7.59968C83.3998 7.29969 84.2998 6.99969 85.1998 6.89969C86.3998 6.79969 87.5998 7.29969 87.5998 8.49968V12.1996L88.0998 13.1996L87.1998 13.6996L86.5998 12.7996ZM86.3998 10.3997C85.9998 10.4997 84.3998 10.7997 84.3998 10.7997C83.6998 10.8997 83.0998 11.2997 83.0998 11.8996C83.0998 12.4996 83.5998 12.7996 84.1998 12.7996C85.0998 12.7996 85.5998 12.3996 86.2998 11.8996V10.3997H86.3998ZM92.8998 7.89968C91.5998 7.89968 90.8998 8.39968 90.4998 8.69967V13.5996H89.3998V8.49968L88.8998 7.49968L89.7998 6.99969C89.8998 7.29969 90.2998 7.89968 90.2998 7.89968C90.9998 7.19969 91.8998 6.89969 92.8998 6.89969V7.89968ZM99.3998 13.0996L98.5998 13.6996L96.0998 10.5997L95.1998 10.7997V13.5996H94.0998V4.49971H95.1998V9.69966L95.6998 9.59967L98.5998 6.79969L99.2998 7.59968L96.8998 9.89966L99.3998 13.0996ZM100.9 5.5997V4.59971H101.6C101.7 4.59971 101.7 4.69971 101.7 4.69971V4.89971C101.7 4.99971 101.7 4.99971 101.6 5.09971C101.5 5.1997 101.5 5.1997 101.4 5.1997C101.4 5.1997 101.5 5.19971 101.5 5.2997L101.7 5.4997L101.8 5.6997H101.6L101.5 5.4997C101.4 5.3997 101.4 5.2997 101.3 5.2997H101.1V5.6997H100.9V5.5997ZM101.1 5.09971H101.5L101.6 4.99971V4.89971L101.5 4.79971H101.1V5.09971Z" fill="white"/>
<path d="M43.5996 18.5996H0V0H43.5996V18.5996ZM32.6006 6.89941C30.6006 6.89941 29.9004 8.19981 29.9004 9.2998C29.9004 10.5997 30.5004 11.0994 30.9004 11.3994L30.4004 12.2998L31.2002 13.1992C31.2002 13.1992 32.2006 13.4 33.1006 13.5C33.6005 13.6 34.2996 13.7998 34.2998 14.3994C34.2998 15.1993 33.8003 15.3994 32.6006 15.3994C32.1071 15.3994 31.6133 15.2043 31.6006 15.1992L30.4004 15L30.1006 15.6992C30.6007 15.9992 31.9 16.2998 32.5 16.2998C34 16.2998 35.4004 15.9994 35.4004 14.3994C35.4003 12.9001 34.0011 12.6996 33.6006 12.5996C33.0006 12.3996 31.7002 12.1992 31.7002 12.1992L32 11.6992C32.2 11.7992 32.3002 11.7998 32.7002 11.7998C34.8001 11.7998 35.5 10.6997 35.5 9.2998C35.5 8.59981 35.4004 8.39941 35.4004 8.39941L35.7002 7.5L34.7002 7L34.5 7.5C34.2001 7.20006 33.4004 6.89953 32.6006 6.89941ZM21.4004 6.7998C19.3004 6.7998 18.5 8.39982 18.5 10.2998V10.3994C18.5 11.4992 18.7999 12.2995 19.2998 12.8994C19.7998 13.4994 20.5001 13.7998 21.5 13.7998C22.2 13.7998 23.6002 13.4996 24.2002 13.0996C24.2002 13.0996 24.0004 12.6994 23.9004 12.3994C23.4006 12.4994 23.0004 12.4997 22.6006 12.5996C22.2009 12.7995 21.8007 12.7998 21.6006 12.7998C20.3006 12.7998 19.7002 11.7994 19.7002 10.3994H24.2998V10.2998C24.2998 8.29991 23.4002 6.79993 21.4004 6.7998ZM4.7002 4.5V13.5996H10.2998V12.7998L8.90039 12.6992H5.7998V9.2998L9.5 9.39941V8.39941H5.7998V5.39941L10.2998 5.5V4.5H4.7002ZM15.1006 6.89941C14.4006 6.89941 13.9 7.19942 13.5 7.39941L12.6006 7.89941L12.1006 7L11.1006 7.5L11.6006 8.5V13.5996H12.7002V8.69922L13.1006 8.39941C13.5005 8.09957 14.1002 7.7999 14.7998 7.7998C15.4998 7.7998 15.9004 8.09981 15.9004 8.7998V13.5996H17V8.89941C17 8.19957 16.8006 7.69938 16.6006 7.39941C16.2007 7.09949 15.7004 6.89952 15.1006 6.89941ZM29.1006 6.7998C28.1006 6.7998 27.2 7.09981 26.5 7.7998C26.5 7.7998 26.1 7.19941 26 6.89941L25.1006 7.5L25.6006 8.5V13.5996H26.7002V8.69922C27.1002 8.3992 27.8009 7.89941 29.1006 7.89941V6.7998ZM37.2998 7.09961V13.5996H38.4004V7.09961H37.2998ZM32.7002 7.7998C33.9002 7.79982 34.4004 8.39983 34.4004 9.2998C34.4004 9.89981 34.2 10.8994 32.7002 10.8994C31.3003 10.8994 31.1006 9.99978 31.1006 9.2998C31.1006 8.39981 31.6002 7.7998 32.7002 7.7998ZM21.4004 7.69922C22.5002 7.69934 23.1006 8.50009 23.1006 9.5H19.7002C19.7002 8.50001 20.3004 7.69922 21.4004 7.69922ZM37.2998 4.5V6.19922H38.4004V4.5H37.2998Z" fill="white"/>
<path d="M101.3 6.20001C101.907 6.20001 102.4 5.70753 102.4 5.10002C102.4 4.49251 101.907 4.00003 101.3 4.00003C100.692 4.00003 100.2 4.49251 100.2 5.10002C100.2 5.70753 100.692 6.20001 101.3 6.20001Z" stroke="white" stroke-width="0.2" stroke-miterlimit="10"/>
</svg>
