<svg width="117" height="29" viewBox="0 0 117 29" fill="none" xmlns="http://www.w3.org/2000/svg">
<path d="M101.711 0C109.948 0 116.108 6.16627 116.108 14.4004C116.108 22.6549 109.954 28.7979 101.711 28.7979C93.4682 28.7977 87.3076 22.6344 87.3076 14.4004C87.3076 6.16637 93.474 0.000147152 101.711 0ZM101.711 2.30664C94.7927 2.30679 89.7481 7.39786 89.748 14.4004C89.748 21.4029 94.7956 26.494 101.711 26.4941C108.626 26.4941 113.663 21.403 113.663 14.4004C113.663 7.4268 108.629 2.30664 101.711 2.30664ZM47.3916 8.57715C50.967 8.57715 52.208 9.82007 52.208 13.3896V20.084C52.208 20.9813 52.4864 21.3212 53.2441 21.3213H53.4424V22.8232H49.4189C48.5451 22.8231 48.0978 22.3788 48.0977 21.5078V21.3096C47.5302 21.8002 46.8956 22.2078 46.2129 22.5186C45.4602 22.8154 44.6577 22.9662 43.8486 22.9629C41.4699 22.9629 40.3086 21.673 40.3086 19.001C40.3086 16.8953 41.1474 15.5241 42.9219 14.8125C43.4595 14.5917 44.0154 14.418 44.583 14.293C45.5966 14.0693 46.1604 13.9584 47.958 13.668V13.3545C47.958 12.1261 47.5373 11.7051 46.3525 11.7051C44.8474 11.7594 43.3707 12.1334 42.0215 12.8027L41.043 10.1016C41.9788 9.58666 42.9829 9.20713 44.0254 8.97461C45.1288 8.71587 46.2583 8.58284 47.3916 8.57715ZM80.4971 11.6787L74.6445 19.8838H80.7646L80.7441 22.8467H69.707V19.9424L75.6201 11.6445H72.4658C71.7662 11.6447 71.4297 11.9521 71.4297 12.5996V12.8496H69.7998V10.2939C69.7998 9.25125 70.2795 8.77441 71.3193 8.77441H80.4971V11.6787ZM10.5811 4.08105C11.6526 4.08109 12.2622 4.55119 12.5527 5.57031L17.459 22.8232H12.5215L11.2549 18.2979H5.91309L4.55957 22.835H0L4.91406 8.07129C5.2044 7.2322 5.28608 6.92437 5.28613 6.55566C5.28613 6.00091 4.8911 5.70996 4.15918 5.70996H3.57812V4.08105H10.5811ZM21.7686 4.08105C22.6428 4.08105 23.1719 4.61527 23.1719 5.51855V22.835H18.7568V6.75879C18.7568 6.02106 18.4458 5.70996 17.7168 5.70996H17.4268V4.08105H21.7686ZM29.2715 4.08105C30.1397 4.0812 30.6768 4.61539 30.6768 5.51855V22.835H26.2764V6.75879C26.2764 6.02121 25.966 5.71009 25.2344 5.70996H24.9434V4.08105H29.2715ZM36.8838 8.78027C37.7579 8.78029 38.2919 9.31174 38.292 10.2119V22.835H33.9033V11.4463C33.9032 10.7147 33.593 10.378 32.8643 10.3779H32.6113V8.78027H36.8838ZM64.2354 8.61133C65.3941 8.61139 66.3029 8.94324 66.8838 9.59668C67.5953 10.3518 67.7549 11.0546 67.7549 13.2793V22.835H63.3691V13.9297C63.3691 12.5154 63.1401 12.1466 62.208 12.1465C61.3368 12.1465 60.5814 12.5152 59.8467 13.3311V22.835H55.4609V11.4463C55.4609 10.7145 55.1469 10.3779 54.418 10.3779H54.165V8.78027H58.333C59.2304 8.78027 59.6865 9.23032 59.6865 10.1016V10.6621C61.3101 9.14309 62.5188 8.61133 64.2354 8.61133ZM97.8018 8.42285V22.4775H93.6689V10.1133C93.669 8.87029 94.1424 8.42285 95.3535 8.42285H97.8018ZM102.109 4.89453C103.338 4.89459 103.788 5.32163 103.788 6.58789V22.4775H99.626V7.89453C99.626 6.87222 99.4603 6.68068 98.6123 6.68066H98.3887V4.89453H102.109ZM108.063 8.41113C109.274 8.41118 109.754 8.85871 109.754 10.1016V22.4775H105.624V8.41113H108.063ZM47.958 16.085C47.1197 16.2202 46.2992 16.4503 45.5127 16.7705C44.7229 17.0755 44.502 17.526 44.502 18.5889C44.502 19.6516 44.8133 20.041 45.5713 20.041C46.3291 20.0409 47.2234 19.5761 47.958 18.8184V16.085ZM6.61621 15.2422H10.5811L8.72754 8.35352L6.61621 15.2422ZM35.8467 3.75879C37.4441 3.75879 38.377 4.53436 38.377 5.79199C38.3768 7.06974 37.4208 7.8252 35.8467 7.8252C34.2727 7.82514 33.3117 7.06389 33.3115 5.79199C33.3115 4.51988 34.2493 3.75884 35.8467 3.75879Z" fill="white"/>
</svg>
