<svg width="71" height="21" viewBox="0 0 71 21" fill="none" xmlns="http://www.w3.org/2000/svg">
<path fill-rule="evenodd" clip-rule="evenodd" d="M61.1754 19.565C60.9456 20.0116 60.2699 20.8147 59.0965 20.8147H54.277C53.1114 20.8147 52.4219 20.0021 52.2146 19.5763L45.6884 6.28085C45.0483 5.02849 43.704 4.62608 42.5809 4.62608H30.7312C29.6385 4.62608 29.001 5.32857 29.001 6.36064C29.001 7.45861 29.7122 8.0952 30.7477 8.0952H38.9001C42.3719 8.0952 45.2452 10.2001 45.2452 14.455C45.2452 18.7359 42.3441 20.8139 38.9001 20.8139H28.4225C27.472 20.8139 26.6819 20.2614 26.6819 19.0594V16.7689C26.6819 16.3795 26.9421 16.1895 27.263 16.1895H36.581C37.5472 16.1895 38.3217 15.6076 38.3217 14.455C38.3217 13.3154 37.5611 12.7187 36.5836 12.7187L27.8189 12.7204C26.3497 12.7204 25.0158 12.318 24.0722 11.697C23.5883 17.3378 19.5659 20.8139 13.6883 20.8139H0.579344C0.25845 20.8139 0 20.6213 0 20.2354V8.67367C0 8.28947 0.254981 8.09693 0.569803 8.0952H5.18374C6.41441 8.0952 6.9608 8.88529 6.9608 9.82109V15.6111H6.96426C6.96426 15.9953 7.21924 16.1861 7.5332 16.1887H11.5366C14.6848 16.1887 17.304 14.2772 17.304 10.4082C17.304 6.53236 14.6961 4.62694 11.5366 4.62694H0.565467C0.253246 4.62087 0 4.4318 0 4.04673V1.75191C0 0.454455 0.914981 0 1.75711 0H13.7473C17.1227 0 20.1756 1.25322 21.9726 3.56366C22.9482 1.21333 25.1312 0 27.8718 0H45.044C47.1541 0 49.5417 0.725914 50.7836 3.16731L56.3403 14.853C56.3975 14.9727 56.5103 15.0291 56.6516 15.0291C56.7809 15.0291 56.9014 14.9814 56.9604 14.8591C56.9604 14.8591 63.8319 0.363391 63.8726 0.280132C63.9073 0.202076 64.0496 0 64.3843 0H69.6687C69.9904 0 70.2497 0.190802 70.2497 0.577609C70.2512 0.674873 70.2317 0.77131 70.1925 0.860342L61.1754 19.565Z" fill="white"/>
</svg>
