<svg width="61" height="61" viewBox="0 0 61 61" fill="none" xmlns="http://www.w3.org/2000/svg">
<path d="M30.2236 0C46.9064 0.000256074 60.4343 13.5278 60.4346 30.2227C60.4346 46.9178 46.9066 60.446 30.2236 60.4463C13.5405 60.4342 0 46.9058 0 30.2227C0.00012757 22.2077 3.17986 14.5194 8.84961 8.84961C14.5195 3.17975 22.2085 0 30.2236 0ZM6.21387 36.8721C5.89956 36.8721 5.66989 37.1743 5.7666 37.4766C8.89784 48.0182 18.6785 55.7305 30.2236 55.7305C41.7686 55.7303 51.5729 48.0181 54.7041 37.4766C54.8008 37.1744 54.5711 36.8722 54.2568 36.8721H39.2422C39.0972 36.8721 38.9639 36.9441 38.8672 37.0527C36.7879 39.7002 33.5964 41.2479 30.2236 41.248C26.8507 41.248 23.6705 39.7003 21.5791 37.0527C21.4945 36.9441 21.3496 36.8721 21.2168 36.8721H6.21387ZM30.6465 26.3066C28.9057 26.3066 27.6723 27.274 27.5635 28.7246C27.491 29.5707 27.9259 30.3685 28.7598 30.9004C28.9768 31.033 31.0454 32.2477 31.0811 32.2666C31.6855 32.6293 32.5202 33.1378 32.4355 34.3467C32.3628 35.3137 31.6613 36.293 30.2471 36.293C29.0745 36.3171 28.0348 35.5431 27.6963 34.4189H26.9834C27.3099 35.6399 28.3617 36.873 30.4893 36.873H30.5254C33.1483 36.8608 33.8015 34.7093 33.8379 33.875C33.8862 32.6177 33.3539 31.7106 32.1934 31.0215C32.1702 31.003 30.1008 29.8006 29.8477 29.6318C29.2433 29.245 28.8811 28.8693 28.9053 28.1924C28.9297 27.3947 29.6429 26.8148 30.6582 26.8027C31.3957 26.7907 32.6769 27.2016 32.7373 28.6885H33.1846V26.5127H32.75C32.7137 26.6335 32.6042 26.7061 32.4834 26.7061C32.3505 26.6939 32.2175 26.6454 32.0967 26.585C31.6374 26.4037 31.142 26.3067 30.6465 26.3066ZM5.70605 26.5127V26.9355C6.26206 26.9356 6.57617 27.3709 6.57617 28.0479V32.7021C6.57615 34.1284 5.99618 34.9388 4.93262 34.9873C3.96548 35.0357 3.57802 34.4305 3.51758 34.3096C4.07368 34.2854 4.49707 33.8262 4.49707 33.2822C4.49703 33.0286 4.38813 32.775 4.20703 32.5938C4.01368 32.4004 3.74765 32.2911 3.46973 32.291C2.86532 32.291 2.36923 32.7745 2.36914 33.3789C2.34497 33.8865 2.53822 34.3825 2.88867 34.7451C3.36015 35.2408 4.15847 35.5068 5.1377 35.5068C6.87855 35.5068 8.0752 34.237 8.0752 32.3994V28.0596C8.07526 27.3827 8.38988 26.9473 8.95801 26.9473V26.5127H5.70605ZM58.125 33.0166C57.4481 32.9924 57.0854 33.7899 57.5566 34.2734C58.0281 34.757 58.8378 34.4309 58.8379 33.7539C58.8379 33.3671 58.5239 33.0287 58.125 33.0166ZM57.6289 33.3184C58.0399 32.8953 58.7537 33.1855 58.7539 33.7656C58.7539 34.1162 58.4756 34.4068 58.125 34.4189C57.5447 34.4431 57.2179 33.7415 57.6289 33.3184ZM57.835 34.1768H57.9316V33.8389H57.9795C58.1487 33.8389 58.1851 33.8748 58.3301 34.1768H58.4395C58.3186 33.8867 58.294 33.8749 58.1973 33.8145C58.3182 33.8145 58.4033 33.7176 58.4033 33.5967C58.4033 33.4638 58.3064 33.3917 58.1494 33.3916H57.835V34.1768ZM54.6914 26.3193C52.9386 26.4161 51.7898 27.9268 51.7656 30.127C51.7535 31.2631 51.9712 32.1699 52.5029 32.9072C52.2612 33.1731 52.1287 33.4149 51.7783 33.415C51.5003 33.403 51.2336 33.2578 51.1006 33.0039C51.089 32.9712 50.327 31.601 50.291 31.541C50.0372 31.0818 49.6983 30.7195 49.2148 30.5986C49.4566 30.5503 50.8955 30.2596 50.8955 28.543C50.8954 27.2859 50.1457 26.5 48.9248 26.5H45.5879V26.9238C46.0352 26.9238 46.2529 27.2378 46.2529 27.7939V32.5811C46.2529 33.1372 46.0352 33.427 45.5879 33.4512V33.8867H48.2959V33.4639C47.837 33.4637 47.632 33.1494 47.6318 32.5938V30.7803H47.8008C48.1392 30.7682 48.4536 30.9732 48.5986 31.2754L49.6621 33.1611C49.9885 33.7172 50.5207 34.0439 51.2822 34.0439C52.0316 34.0439 52.4548 33.6573 52.8174 33.2705C53.2647 33.7057 53.8819 34.0439 54.9941 34.0439C55.7192 34.068 56.4201 33.8626 57.0244 33.4639V31.5654C57.0244 31.1545 57.1095 30.7316 57.6533 30.6953V30.2598H55.042V30.707C55.1992 30.707 55.3443 30.7682 55.4531 30.877C55.586 31.0099 55.6592 31.2277 55.6592 31.5781V33.3428C55.4053 33.4274 55.1267 33.4513 54.8486 33.415C53.6036 33.3061 53.2167 31.5899 53.2529 30.1514C53.3134 28.2171 53.9179 27.0684 54.9092 26.9717C55.7192 26.8991 56.3716 27.5885 56.5771 28.5557H57.001V26.5127H56.5771C56.4683 26.6936 56.251 26.7057 55.9854 26.585C55.5864 26.3794 55.1387 26.2831 54.6914 26.3193ZM10.6504 26.9111C10.9164 26.9111 11.0498 26.9842 11.1465 27.1172C11.2671 27.3347 11.2789 27.5888 11.1943 27.8184C11.1209 28.0874 9.9247 32.0734 9.76758 32.5811C9.58624 33.1493 9.29607 33.4512 8.8125 33.4512V33.875H11.1826V33.4512C10.941 33.4633 10.7112 33.367 10.542 33.21C10.4695 33.1132 10.3606 32.8953 10.4814 32.5205C10.506 32.4463 10.8012 31.4074 10.8076 31.3848H13.1533L13.4072 32.3398C13.5038 32.7144 13.4667 33.0163 13.3096 33.2217C13.1887 33.3909 13.0441 33.4638 12.7178 33.4639V33.8867H18.666V33.4639C18.2068 33.4639 18.0011 33.1496 18.001 32.5938V30.7803H18.1699C18.5084 30.7682 18.8227 30.9732 18.9678 31.2754C19.5355 32.29 19.9341 32.9911 20.0312 33.1611C20.3577 33.681 20.8054 33.8984 21.5791 33.8984L26.6924 33.9111H27.7686C28.3126 33.9111 28.9053 33.6086 28.9053 32.9316C28.9173 32.6778 28.8206 32.4239 28.6514 32.2305C28.4579 32.0371 28.2038 31.9283 27.9258 31.9404H27.9014C27.551 31.9406 27.2249 32.1218 27.0557 32.4238C26.959 32.5931 26.8862 32.7747 26.8379 32.9561C26.7532 33.2582 26.4753 33.4755 26.1611 33.4756H25.3994C24.9038 33.4756 24.6494 33.2098 24.6494 32.7021V27.8184C24.6494 27.2743 24.8795 26.9355 25.3389 26.9355V26.5127H22.5947V26.9355C23.0539 26.9356 23.2714 27.2619 23.2715 27.8057V32.6904C23.2714 33.2945 23.0297 33.4638 22.498 33.4639H22.1953C21.857 33.4638 21.6514 33.3423 21.458 33.0039L20.6602 31.541C20.4063 31.0698 20.0674 30.7195 19.584 30.5986C19.8258 30.5624 21.2646 30.2596 21.2646 28.543C21.2645 27.2859 20.5148 26.5 19.2939 26.5H15.958V26.9238C16.405 26.924 16.6221 27.238 16.6221 27.7939V32.5811C16.6221 33.1613 16.3924 33.4512 15.9209 33.4512H15.7881C15.5584 33.4511 15.1358 33.3546 14.9424 32.6055C14.894 32.4 13.5641 27.7095 13.2256 26.4883H10.6504V26.9111ZM34.3457 26.9473C34.7807 26.9474 34.998 27.2624 34.998 27.8184V32.6055C34.998 33.1614 34.7927 33.4754 34.3457 33.4756V33.8984H37.8633C39.0116 33.8984 39.7976 33.0891 39.7979 31.8926C39.7979 30.8047 39.2658 30.1636 38.3594 29.958C39.0966 29.7524 39.5439 29.1961 39.5439 28.3018C39.5439 26.9842 38.5526 26.5245 37.6943 26.5244H34.3457V26.9473ZM40.2207 26.5244V26.9473C40.668 26.9473 40.874 27.2623 40.874 27.8184V32.6055C40.874 33.1494 40.6559 33.4756 40.2207 33.4756V33.8984H45.165V31.9287H44.7422C44.7421 32.9077 44.2701 33.4274 43.3877 33.4395H42.9893C42.4936 33.4395 42.2393 33.1252 42.2393 32.6055V30.4297H43.0254C43.5451 30.4297 43.8592 30.6709 43.8594 31.1904H44.2832V29.1357H43.8594C43.8594 29.6556 43.5452 29.8975 43.0254 29.8975H42.2393V27.0566H43.4004C43.9685 27.0567 44.2832 27.4195 44.2832 28.1689H44.7061V26.5244H40.2207ZM58.0645 33.4756C58.2335 33.4756 58.2938 33.4999 58.2939 33.6084C58.2939 33.705 58.2217 33.7418 58.0527 33.7539H57.9316V33.4756H58.0645ZM36.957 30.2598C37.8634 30.2599 38.4315 30.7437 38.4316 31.7588C38.4316 32.8589 37.9237 33.3789 37.1621 33.3789H36.3525V30.2598H36.957ZM13.0078 30.877H10.9521L12.0283 27.2139L13.0078 30.877ZM18.4961 27.0566C18.9192 27.0566 19.8984 27.2014 19.8984 28.5674C19.8984 29.6433 19.4272 30.2597 18.5811 30.2598H18.001V27.0566H18.4961ZM48.1396 27.0566C48.563 27.0567 49.5419 27.2019 49.542 28.5674C49.542 29.6433 49.0578 30.2598 48.2236 30.2598H47.6436V27.0566H48.1396ZM36.9199 27.0566C37.7057 27.0566 38.2988 27.5279 38.2988 28.3379C38.2988 29.2808 37.7544 29.7402 36.9082 29.7402H36.3525V27.0566H36.9199ZM30.2471 4.70215C18.7019 4.70227 8.90941 12.4153 5.77832 22.957C5.69384 23.2591 5.91153 23.5613 6.22559 23.5615H21.2285C21.3736 23.5615 21.5072 23.4887 21.5918 23.3799C23.6712 20.7325 26.8626 19.1855 30.2354 19.1855C33.6081 19.1856 36.7875 20.7325 38.8789 23.3799C38.9635 23.4887 39.1088 23.5615 39.2539 23.5615H54.2568C54.571 23.5614 54.8007 23.2592 54.7041 22.957C51.573 12.4152 41.7923 4.70215 30.2471 4.70215Z" fill="white"/>
<path d="M11.4605 44.6213C13.5036 45.4312 16.7677 45.3345 19.1613 43.2068C20.5153 42.01 21.3616 40.4746 21.8089 38.3711L21.821 38.3107H21.8814C22.3287 38.2744 22.8848 38.5041 23.3684 38.903C23.4168 38.9514 23.4772 38.9997 23.5256 39.0481C23.8641 39.3624 24.1058 39.7735 24.1784 40.2329V40.2933L24.13 40.3175C22.1353 41.1275 20.7571 42.2155 19.8142 43.7508C18.1338 46.4709 18.5931 49.6987 19.7295 51.5726C21.9177 51.3791 24.7828 49.8196 25.9676 46.8457C26.6446 45.1653 26.705 43.4123 26.161 41.333L26.1489 41.2725L26.1973 41.2483C26.6204 41.0428 27.0919 40.9703 27.5513 41.067L27.7568 41.1033C28.3613 41.2483 28.869 41.5627 29.0987 41.9374L29.135 41.9858L29.0987 42.0342C27.6722 43.6541 26.9468 45.2499 26.7897 47.0512C26.5116 50.2428 28.3734 52.9145 30.2351 54.0751C32.0968 52.9145 33.9586 50.2428 33.6805 47.0512C33.5234 45.2499 32.7859 43.6541 31.3715 42.0342L31.3352 41.9858L31.3594 41.9374C31.6012 41.5627 32.0968 41.2483 32.7013 41.1033L32.9068 41.067C33.3662 40.9703 33.8498 41.0307 34.2608 41.2483L34.3092 41.2725L34.2971 41.333C33.7652 43.4123 33.8256 45.1653 34.4905 46.8457C35.6753 49.8196 38.5525 51.3671 40.7286 51.5726C41.865 49.6987 42.3244 46.4709 40.644 43.7508C39.6889 42.2155 38.3228 41.1154 36.3281 40.3175L36.2797 40.2933V40.2329C36.3523 39.7735 36.582 39.3624 36.9326 39.0481C36.9809 38.9997 37.0293 38.9514 37.0897 38.903C37.5733 38.492 38.1173 38.2744 38.5646 38.3107H38.625L38.6371 38.3711C39.0965 40.4746 39.9307 42.0221 41.2847 43.2068C43.6784 45.3224 46.9425 45.4191 48.9735 44.6213C49.1548 42.4331 48.103 39.3503 45.3829 37.6699C43.8355 36.727 42.1188 36.3643 39.979 36.5456C39.4592 36.6061 38.9515 36.7149 38.4558 36.8841C37.7546 37.1259 37.1018 37.5007 36.5336 37.9722L36.4248 38.0568C35.7962 38.5645 35.2763 39.1932 34.8895 39.8943L34.8653 39.9427H34.8169C34.2125 39.8581 33.608 39.8702 33.0156 39.9669C32.9794 39.9669 32.6409 40.0394 32.5321 40.0636C32.4958 40.0636 32.1573 40.1603 32.0848 40.1724C32.0243 40.1966 31.9397 40.2087 31.8913 40.2329C31.311 40.4142 30.767 40.6802 30.2714 41.0187L30.223 41.0549L30.1747 41.0187C29.679 40.6802 29.1229 40.4142 28.5547 40.2329C28.5063 40.2208 28.4338 40.1966 28.3613 40.1724C28.2887 40.1482 27.9502 40.0636 27.9261 40.0636C27.8173 40.0394 27.4788 39.979 27.4425 39.9669C26.8501 39.8702 26.2336 39.8581 25.6412 39.9427H25.5928L25.5686 39.8943C25.1697 39.1932 24.6499 38.5645 24.0333 38.0568L23.9124 37.9722C23.3442 37.5007 22.6914 37.138 21.9902 36.8841C21.4946 36.7149 20.9868 36.594 20.467 36.5456C18.3272 36.3643 16.6105 36.727 15.0631 37.6699C12.3309 39.3503 11.2912 42.4331 11.4605 44.6213ZM40.6198 38.3469C42.1309 38.4678 43.3882 38.8184 44.3674 39.3987C45.661 40.1724 46.5556 41.3934 47.0996 43.1343L47.1359 43.231H47.0271C45.2016 43.2189 43.7751 42.7232 42.6508 41.7077C41.8166 40.9461 41.1033 39.846 40.5472 38.4436L40.4989 38.3348L40.6198 38.3469ZM35.9654 42.2638L35.9775 42.143L36.0863 42.2034C37.3799 42.9892 38.347 43.8717 38.9515 44.8268C39.7614 46.0961 40.0032 47.5952 39.701 49.3965L39.6889 49.5053L39.5922 49.457C37.9722 48.6228 36.9084 47.5348 36.3764 46.1324C35.9654 45.0806 35.8324 43.775 35.9654 42.2638ZM30.223 43.509L30.2835 43.6178C31.0814 44.9114 31.5528 46.1324 31.6616 47.2567C31.8188 48.7437 31.3594 50.1944 30.2835 51.6693L30.223 51.7539L30.1626 51.6693C29.0866 50.1944 28.6272 48.7558 28.7844 47.2567C28.8932 46.1324 29.3647 44.9114 30.1626 43.6178L30.223 43.509ZM24.4806 42.143L24.4927 42.2638C24.6257 43.775 24.4927 45.0806 24.0817 46.1324C23.5376 47.5348 22.4859 48.6228 20.8659 49.457L20.7692 49.5053L20.7571 49.3965C20.4549 47.5952 20.7088 46.0961 21.5067 44.8268C22.1111 43.8717 23.0783 42.9892 24.3718 42.2034L24.4806 42.143ZM13.3706 43.1464C13.9146 41.4055 14.8092 40.1845 16.1028 39.4108C17.0699 38.8305 18.3272 38.4799 19.8504 38.359L19.9713 38.3469L19.923 38.4557C19.3669 39.8702 18.6536 40.9703 17.8194 41.7198C16.7072 42.7353 15.2686 43.231 13.4431 43.2431H13.3343L13.3706 43.1464Z" fill="white"/>
<path fill-rule="evenodd" clip-rule="evenodd" d="M29.8728 52.6607C29.8729 52.3465 30.2603 52.1772 30.49 52.4068C30.7196 52.6365 30.5623 53.0239 30.2361 53.024C30.0305 53.0119 29.8728 52.8542 29.8728 52.6607ZM39.988 49.9625C40.055 49.942 40.131 49.9402 40.2097 49.9645C40.5118 50.0612 40.5477 50.4844 40.2575 50.6295C40.0989 50.714 39.912 50.6698 39.8113 50.5357C39.7968 50.5166 39.7848 50.495 39.7741 50.4723C39.7561 50.4362 39.744 50.3999 39.738 50.3639C39.7199 50.2554 39.7535 50.1509 39.8191 50.0738C39.8629 50.0224 39.9211 49.9829 39.988 49.9625ZM20.489 49.9615C20.521 49.9726 20.5517 49.9882 20.5798 50.0084C20.6077 50.0284 20.6332 50.0528 20.655 50.0816C20.677 50.1107 20.6951 50.1444 20.7087 50.1822C20.8175 50.4844 20.5037 50.7626 20.2136 50.6178C20.0202 50.5453 19.9471 50.3274 20.0437 50.1461C20.1162 50.001 20.2558 49.9344 20.3904 49.942L20.489 49.9615ZM12.3913 43.485C12.5818 43.3398 12.8338 43.426 12.9323 43.6109C12.9487 43.6416 12.9606 43.675 12.9675 43.7106C12.9744 43.7461 12.9769 43.7837 12.9724 43.8229C12.924 44.1372 12.5125 44.246 12.3191 43.9801C12.2106 43.823 12.2345 43.6058 12.3913 43.485ZM47.7888 43.4127C48.0245 43.3764 48.2066 43.5711 48.2009 43.7779C48.2 43.8125 48.1933 43.8473 48.1814 43.8815C48.1694 43.9155 48.1518 43.9494 48.1277 43.9811C48.0188 44.1501 47.7886 44.1738 47.6316 44.065C47.3661 43.8716 47.4628 43.4733 47.7888 43.4127ZM30.2234 42.2399C30.2746 42.2399 30.3234 42.2493 30.3669 42.2672C30.4107 42.2852 30.4496 42.3117 30.4822 42.3443C30.5144 42.3767 30.5404 42.4153 30.5583 42.4586C30.5764 42.5023 30.5866 42.5507 30.5866 42.6022C30.5866 42.6808 30.5621 42.7507 30.5222 42.8072C30.4325 42.9343 30.2636 42.9951 30.112 42.9449C30.0784 42.9338 30.0453 42.9177 30.0144 42.8951C29.999 42.8838 29.9838 42.8704 29.9695 42.8561C29.8264 42.7126 29.8339 42.508 29.9392 42.3746C29.9605 42.3476 29.9856 42.3234 30.0144 42.3033C30.0712 42.2637 30.1422 42.2399 30.2234 42.2399ZM35.5427 40.9772C35.6618 40.9666 35.7824 41.0221 35.8601 41.1256C35.8719 41.1413 35.8837 41.1575 35.8933 41.1754V41.1764L35.9157 41.2301C35.9576 41.3577 35.9251 41.4848 35.8484 41.5748C35.7607 41.6777 35.615 41.7316 35.4577 41.6832C35.2693 41.6225 35.1839 41.4349 35.2175 41.2672C35.2377 41.1665 35.3011 41.0735 35.4099 41.0191C35.4312 41.007 35.4529 40.9968 35.4753 40.9899L35.5427 40.9772ZM24.5417 41.4537C24.433 41.1516 24.7468 40.8735 25.0368 41.0182C25.1275 41.0544 25.1912 41.1274 25.2214 41.2135C25.2289 41.2349 25.2347 41.2571 25.238 41.2799C25.2447 41.3257 25.2427 41.3736 25.2312 41.4205C25.2254 41.4439 25.2173 41.4672 25.2068 41.4899C25.0979 41.7076 24.8389 41.7485 24.6706 41.6275C24.6287 41.5974 24.5922 41.5574 24.5652 41.5074L24.5417 41.4537ZM39.4841 37.5973C39.605 37.4283 39.8222 37.3925 39.9792 37.5133C40.2451 37.6947 40.1484 38.1052 39.822 38.1656C39.5078 38.2138 39.2907 37.8511 39.4841 37.5973ZM20.3347 37.7428C20.383 37.4285 20.7936 37.3196 20.987 37.5856C21.0957 37.7427 21.0592 37.9598 20.9021 38.0807C20.6483 38.2738 20.2866 38.0569 20.3347 37.7428Z" fill="#C8102E"/>
<path d="M48.9855 15.8007C46.9425 14.9907 43.6784 15.0875 41.2968 17.2152C39.9428 18.412 39.0965 19.9473 38.6492 22.0509L38.6371 22.1113H38.5767C38.1294 22.1476 37.5854 21.9179 37.1018 21.5189C37.0534 21.4706 36.993 21.4222 36.9446 21.3739C36.594 21.0596 36.3644 20.6485 36.2918 20.1891V20.1287L36.3402 20.1045C38.3349 19.2945 39.7131 18.2065 40.656 16.6712C42.3364 13.9511 41.8771 10.7232 40.7407 8.84941C38.5525 9.05492 35.6874 10.6023 34.4905 13.5763C33.8135 15.2567 33.7531 17.0097 34.2971 19.089L34.3092 19.1374L34.2608 19.1615C33.8377 19.3671 33.3662 19.4396 32.9068 19.3429C32.8947 19.3429 32.7618 19.3187 32.7013 19.3066C32.0968 19.1615 31.5891 18.8472 31.3594 18.4725L31.3352 18.4241L31.3715 18.3757C32.798 16.7558 33.5234 15.16 33.6805 13.3587C33.9586 10.1671 32.0968 7.49541 30.2351 6.33484C28.3734 7.49541 26.5116 10.1671 26.7897 13.3587C26.9468 15.16 27.6722 16.7558 29.0987 18.3757L29.135 18.4241L29.0987 18.4725C28.8569 18.8472 28.3613 19.1615 27.7568 19.3066C27.7084 19.3187 27.5755 19.3429 27.5513 19.3429C27.0919 19.4396 26.6083 19.3791 26.1973 19.1615L26.1489 19.1374L26.161 19.089C26.705 17.0097 26.6446 15.2446 25.9676 13.5763C24.7828 10.6023 21.9056 9.05492 19.7295 8.84941C18.5931 10.7232 18.1338 13.9511 19.8142 16.6712C20.7571 18.2065 22.1353 19.3066 24.13 20.1045L24.1784 20.1287V20.1891C24.1058 20.6485 23.8761 21.0596 23.5256 21.3739C23.4772 21.4222 23.4288 21.4706 23.3684 21.5189C22.8848 21.93 22.3408 22.1476 21.8814 22.1234H21.821L21.8089 22.063C21.3495 19.9594 20.5032 18.412 19.1613 17.2273C16.7677 15.1116 13.5036 15.0149 11.4605 15.8128C11.2912 18.001 12.3309 21.0837 15.0631 22.7641C16.6105 23.7071 18.3151 24.0698 20.467 23.8884C20.9868 23.828 21.4946 23.7192 21.9902 23.5499C22.6914 23.3082 23.3442 22.9334 23.9124 22.4619L24.0212 22.3652C24.6499 21.8574 25.1697 21.2288 25.5566 20.5276L25.5807 20.4793H25.6291C26.2336 20.5639 26.838 20.5518 27.4304 20.4551C27.4667 20.4551 27.8052 20.3826 27.914 20.3584C27.9502 20.3584 28.2887 20.2617 28.3492 20.2496L28.5426 20.1891C29.1229 20.0078 29.6669 19.7418 30.1626 19.4033L30.2109 19.3791L30.2593 19.4033C30.7549 19.7418 31.311 20.0078 31.8792 20.1891L32.0727 20.2496C32.1331 20.2617 32.4837 20.3584 32.52 20.3584C32.6288 20.3826 32.9673 20.443 33.0035 20.4551C33.5959 20.5518 34.2125 20.5639 34.8048 20.4793H34.8532L34.8774 20.5276C35.2763 21.2288 35.7962 21.8574 36.4127 22.3652L36.5215 22.4619C37.0897 22.9334 37.7425 23.2961 38.4316 23.5379C38.9273 23.7071 39.435 23.828 39.9549 23.8764C42.0947 24.0577 43.8234 23.695 45.3588 22.7521C48.1151 21.0837 49.1669 17.9889 48.9855 15.8007ZM19.8383 22.0871C18.3272 21.9663 17.0699 21.6036 16.0907 21.0354C14.7971 20.2617 13.9025 19.0406 13.3585 17.2998L13.3343 17.191H13.431C15.2565 17.191 16.683 17.6867 17.8073 18.7022C18.6415 19.4638 19.3548 20.5639 19.9109 21.9783L19.9592 22.0871H19.8383ZM24.4927 18.1581L24.4806 18.279L24.3718 18.2186C23.0783 17.4328 22.1111 16.5503 21.5067 15.5952C20.6967 14.3258 20.4549 12.8268 20.7571 11.0255L20.7692 10.9288L20.8659 10.9771C22.498 11.8113 23.5497 12.8993 24.0817 14.3017C24.4927 15.3534 24.6257 16.647 24.4927 18.1581ZM30.223 16.925L30.1626 16.8162C29.3526 15.5227 28.8932 14.3017 28.7844 13.1774C28.6393 11.6904 29.0866 10.2276 30.1626 8.76478L30.223 8.68016L30.2835 8.76478C31.3594 10.2397 31.8188 11.6783 31.6616 13.1774C31.5528 14.3017 31.0814 15.5227 30.2835 16.8162L30.223 16.925ZM35.9775 18.2911L35.9654 18.1702C35.8324 16.6591 35.9654 15.3534 36.3764 14.3017C36.9205 12.8993 37.9722 11.8113 39.5922 10.9771L39.6889 10.9288L39.701 11.0255C40.0032 12.8268 39.7493 14.3258 38.9515 15.5952C38.347 16.5503 37.3799 17.4328 36.0863 18.2186L35.9775 18.2911ZM47.0875 17.2877C46.5435 19.0286 45.6489 20.2496 44.3554 21.0233C43.3882 21.6036 42.1309 21.9542 40.6077 22.0751L40.4868 22.0871L40.5351 21.9783C41.0913 20.5639 41.8045 19.4638 42.6387 18.7022C43.7509 17.6867 45.1895 17.191 47.015 17.1789H47.1238L47.0875 17.2877Z" fill="white"/>
<path d="M30.586 7.7729C30.586 8.09931 30.1992 8.25646 29.9695 8.02677C29.7398 7.79707 29.909 7.41022 30.2233 7.41022C30.4289 7.41022 30.586 7.56738 30.586 7.7729ZM29.8727 17.8191C29.8727 17.5047 30.2596 17.3355 30.4893 17.5652C30.719 17.7949 30.5618 18.1817 30.2354 18.1817C30.0299 18.1817 29.8607 18.0246 29.8727 17.8191ZM20.6849 9.94896C20.83 10.2391 20.5519 10.5534 20.2497 10.4446C19.9475 10.3358 19.9233 9.92478 20.2013 9.77971C20.3706 9.69509 20.5882 9.76762 20.6849 9.94896ZM24.5656 19.2577C24.4326 18.9675 24.6985 18.6532 25.0008 18.762C25.303 18.8708 25.3272 19.2819 25.0491 19.4269C24.8678 19.5116 24.6502 19.439 24.5656 19.2577ZM20.6849 9.94896C20.83 10.2391 20.5519 10.5534 20.2497 10.4446C19.9475 10.3358 19.9233 9.92478 20.2013 9.77971C20.3706 9.69509 20.5882 9.76762 20.6849 9.94896ZM24.5656 19.2577C24.4326 18.9675 24.6985 18.6532 25.0008 18.762C25.303 18.8708 25.3272 19.2819 25.0491 19.4269C24.8678 19.5116 24.6502 19.439 24.5656 19.2577ZM12.8148 16.3563C13.0808 16.5497 12.972 16.9607 12.6576 17.0091C12.3433 17.0574 12.1257 16.6948 12.3191 16.4409C12.44 16.2837 12.6576 16.2475 12.8148 16.3563ZM20.4673 22.9207C20.2013 22.7273 20.298 22.3163 20.6245 22.2679C20.9388 22.2196 21.1564 22.5822 20.963 22.8361C20.8542 23.0054 20.6245 23.0295 20.4673 22.9207ZM12.8148 16.3563C13.0808 16.5497 12.972 16.9607 12.6576 17.0091C12.3433 17.0574 12.1257 16.6948 12.3191 16.4409C12.44 16.2837 12.6576 16.2475 12.8148 16.3563ZM20.4673 22.9207C20.2013 22.7273 20.298 22.3163 20.6245 22.2679C20.9388 22.2196 21.1564 22.5822 20.963 22.8361C20.8542 23.0054 20.6245 23.0295 20.4673 22.9207ZM40.4146 10.2754C40.2695 10.5655 39.8585 10.5413 39.7497 10.2391C39.6409 9.93687 39.9552 9.65882 40.2453 9.80389C40.4267 9.88851 40.4992 10.1061 40.4146 10.2754ZM35.2525 18.9313C35.3975 18.6411 35.8086 18.6653 35.9174 18.9675C36.0262 19.2698 35.7119 19.5478 35.4217 19.4028C35.2283 19.3302 35.1558 19.1126 35.2525 18.9313ZM40.4146 10.2754C40.2695 10.5655 39.8585 10.5413 39.7497 10.2391C39.6409 9.93687 39.9552 9.65882 40.2453 9.80389C40.4267 9.88851 40.4992 10.1061 40.4146 10.2754ZM35.2525 18.9313C35.3975 18.6411 35.8086 18.6653 35.9174 18.9675C36.0262 19.2698 35.7119 19.5478 35.4217 19.4028C35.2283 19.3302 35.1558 19.1126 35.2525 18.9313ZM48.055 16.9486C47.8978 17.0695 47.6802 17.0333 47.5593 16.8761C47.2692 16.4892 47.8495 16.0661 48.1396 16.453C48.2605 16.5981 48.2243 16.8157 48.055 16.9486ZM39.5562 22.3525C39.8101 22.1591 40.1728 22.3767 40.1244 22.691C40.0761 23.0054 39.6651 23.1142 39.4716 22.8482C39.3628 22.691 39.3991 22.4613 39.5562 22.3525Z" fill="#C8102E"/>
</svg>
